<svg width="61" height="61" viewBox="0 0 61 61" fill="none" xmlns="http://www.w3.org/2000/svg">
<path fill-rule="evenodd" clip-rule="evenodd" d="M30.5 20.74C25.1097 20.74 20.74 25.1097 20.74 30.5C20.74 35.8903 25.1097 40.26 30.5 40.26C35.8903 40.26 40.26 35.8903 40.26 30.5C40.26 25.1097 35.8903 20.74 30.5 20.74ZM15.86 30.5C15.86 22.4145 22.4145 15.86 30.5 15.86C38.5854 15.86 45.14 22.4145 45.14 30.5C45.14 38.5854 38.5854 45.14 30.5 45.14C22.4145 45.14 15.86 38.5854 15.86 30.5Z" fill="#011627"/>
<path fill-rule="evenodd" clip-rule="evenodd" d="M17.08 4.88C10.3421 4.88 4.88 10.3421 4.88 17.08V43.92C4.88 50.6579 10.3421 56.12 17.08 56.12H43.92C50.6579 56.12 56.12 50.6579 56.12 43.92V17.08C56.12 10.3421 50.6579 4.88 43.92 4.88H17.08ZM0 17.08C0 7.64698 7.64698 0 17.08 0H43.92C53.353 0 61 7.64698 61 17.08V43.92C61 53.353 53.353 61 43.92 61H17.08C7.64698 61 0 53.353 0 43.92V17.08Z" fill="#011627"/>
<path d="M46.36 18.3C48.3814 18.3 50.02 16.6613 50.02 14.64C50.02 12.6186 48.3814 10.98 46.36 10.98C44.3386 10.98 42.7 12.6186 42.7 14.64C42.7 16.6613 44.3386 18.3 46.36 18.3Z" fill="#011627"/>
</svg>
