<svg width="95" height="28" viewBox="0 0 95 28" fill="none" xmlns="http://www.w3.org/2000/svg">
<path d="M32.8485 0.706851C32.5131 0.929914 32.2641 1.26108 32.1429 1.64528L28.4668 15.6335C28.3575 16.0639 28.2481 16.5225 28.1458 17.0164C28.0435 17.5104 27.9412 18.0219 27.8424 18.5617C27.7295 18.0078 27.6025 17.5033 27.4543 17.0059C27.3061 16.5084 27.165 16.0639 27.031 15.6335L22.7234 1.63822C22.5986 1.23778 22.3426 0.891042 21.9966 0.653932C21.597 0.40344 21.1307 0.280398 20.6595 0.301139H18.818C18.3464 0.285932 17.8832 0.428729 17.502 0.706851C17.176 0.935159 16.9293 1.25952 16.7965 1.6347L12.4465 15.6335L12.0232 17.08C11.8785 17.588 11.7409 18.1383 11.6175 18.7099C11.5608 18.1647 11.4689 17.6238 11.3423 17.0905C11.2188 16.5719 11.0989 16.0886 10.9895 15.6335L7.29222 1.63822C7.18467 1.23798 6.93349 0.891354 6.58664 0.664516C6.18122 0.412414 5.7088 0.289387 5.23191 0.311723H0L8.2871 27.124H13.9318L19.0508 10.4968C19.1355 10.2393 19.2237 9.95707 19.3189 9.65014C19.4142 9.34321 19.4988 9.01864 19.5835 8.67291C19.6717 9.0257 19.7599 9.34321 19.8516 9.65014C19.9434 9.95707 20.0316 10.2393 20.1198 10.4968L25.1541 27.124H30.7988L39.0824 0.311723H34.175C33.7019 0.29739 33.2367 0.435951 32.8485 0.706851V0.706851Z" fill="#011627"/>
<path d="M64.1165 3.95961C62.8624 2.70735 61.3685 1.72101 59.7242 1.05966C57.9132 0.335295 55.977 -0.0243745 54.0266 0.00128199C52.0779 -0.0187046 50.144 0.340771 48.3326 1.05966C46.6818 1.71526 45.1815 2.69948 43.9227 3.95256C42.695 5.19344 41.7344 6.67264 41.1003 8.29896C40.4198 10.0213 40.0784 11.8589 40.0949 13.7108C40.0784 15.5638 40.4198 17.4026 41.1003 19.1262C41.7434 20.7656 42.7175 22.2549 43.9618 23.5011C45.2062 24.7472 46.6941 25.7235 48.3326 26.369C52.0053 27.7709 56.0657 27.7709 59.7384 26.369C61.3854 25.7129 62.8803 24.7259 64.1306 23.469C65.3521 22.2205 66.3117 20.7403 66.953 19.1156C67.6323 17.3917 67.9725 15.553 67.9549 13.7002C67.9713 11.8544 67.6311 10.0228 66.953 8.30602C66.3091 6.68134 65.3444 5.2031 64.1165 3.95961V3.95961ZM48.4384 7.40993C49.0893 6.67063 49.9017 6.09118 50.8127 5.71652C51.8343 5.30878 52.9268 5.1085 54.0266 5.12736C55.1137 5.11084 56.1931 5.31113 57.2018 5.71652C58.1086 6.09314 58.9172 6.67241 59.5655 7.40993C59.9361 7.83995 60.2525 8.31389 60.5074 8.8211C60.1708 8.90598 59.8434 9.02416 59.5302 9.17389C59.2515 9.31853 59.001 9.47023 58.7611 9.62193C58.4589 9.81328 58.1442 9.98418 57.8192 10.1335C57.4547 10.3027 57.065 10.4112 56.6655 10.4545C56.1434 10.5251 55.6142 10.5251 55.0921 10.4545C54.7282 10.4107 54.372 10.3169 54.0337 10.1758C53.6768 10.0176 53.3324 9.8324 53.0035 9.62193C52.7919 9.48787 52.5767 9.35381 52.3438 9.22681C51.8783 8.98101 51.3771 8.80959 50.8586 8.71878L51.1337 10.0876C51.6597 10.2341 52.1588 10.464 52.6119 10.7685L52.6931 10.8214C53.0519 11.0526 53.4282 11.2554 53.8185 11.4282C54.1596 11.5647 54.5145 11.6641 54.8769 11.7246C55.2086 11.7737 55.5435 11.7973 55.8788 11.7951C56.2141 11.7975 56.5491 11.7739 56.8807 11.7246C57.279 11.6577 57.6668 11.5391 58.0344 11.3718C58.3928 11.2093 58.7394 11.0218 59.0716 10.8108C59.1291 10.7683 59.1892 10.7295 59.2515 10.6944C59.6721 10.4173 60.1342 10.2089 60.6203 10.077C60.7438 10.0418 60.8779 10.0171 61.0155 9.99237C61.0155 10.0312 61.0472 10.07 61.0578 10.1088C61.2776 10.8079 61.4242 11.5279 61.4953 12.2573C60.8127 12.3409 60.1553 12.5669 59.5655 12.9205C59.4032 13.0017 59.2621 13.1005 59.1069 13.1887C58.7953 13.388 58.4699 13.5649 58.1331 13.7179C57.5344 13.9705 56.8882 14.0908 56.2387 14.0706C55.2074 14.0947 54.1962 13.784 53.3563 13.1851C53.2223 13.0969 53.0812 13.0158 52.9365 12.9347C52.4936 12.6663 52.0115 12.4687 51.5077 12.349C51.0658 12.2479 50.6134 12.1993 50.16 12.2044C49.805 12.1985 49.4504 12.2293 49.1017 12.2961C48.6231 12.3736 48.1592 12.5235 47.7258 12.7406C47.4541 12.8853 47.2072 13.037 46.9567 13.1887C46.7768 13.2945 46.6039 13.4003 46.4204 13.5027C46.4212 12.3525 46.5924 11.2088 46.9285 10.1088C47.2419 9.11538 47.7558 8.19683 48.4384 7.40993V7.40993ZM61.0578 17.2881C60.7544 18.2788 60.2499 19.1964 59.5761 19.9835C58.9303 20.722 58.1209 21.2995 57.2124 21.6698C56.202 22.0683 55.1232 22.2648 54.0372 22.2484C52.9323 22.2743 51.833 22.0825 50.8021 21.6839C49.8895 21.3156 49.0762 20.738 48.4278 19.9976C47.8891 19.3692 47.462 18.6533 47.1648 17.8808H47.1931C47.9041 17.4034 48.7329 17.1312 49.5885 17.0941H49.9131C50.2514 17.0932 50.5891 17.1227 50.9221 17.1823L51.0561 17.207C51.6803 17.3636 52.2716 17.63 52.8025 17.9937C52.9894 18.1101 53.187 18.2265 53.3916 18.3465C54.1867 18.7806 55.0827 18.996 55.9882 18.9709V17.6621C54.9567 17.6876 53.945 17.3768 53.1059 16.7766C53.0353 16.7342 52.9542 16.6778 52.873 16.6355C52.517 16.4048 52.1359 16.2154 51.737 16.071C51.4751 15.982 51.206 15.9159 50.9327 15.8734C50.5993 15.8172 50.2617 15.7901 49.9237 15.7923C49.8143 15.7923 49.7085 15.7923 49.5991 15.7923C48.7493 15.8139 47.9199 16.0571 47.1931 16.4979C47.0555 16.5755 46.9249 16.6566 46.8015 16.7378C46.6441 16.1187 46.5402 15.4872 46.491 14.8503C46.7803 14.7057 47.0378 14.5504 47.2918 14.3952C47.3553 14.3494 47.4188 14.3141 47.4788 14.2788C47.8996 14.0065 48.3585 13.7984 48.8406 13.6614C49.2761 13.5492 49.7244 13.4946 50.1742 13.4991C50.6045 13.4968 51.0335 13.5477 51.4513 13.6508C51.9743 13.7896 52.4703 14.0149 52.9189 14.3176C52.9616 14.3422 53.0028 14.3693 53.0424 14.3987C53.9766 15.0561 55.0966 15.3973 56.2387 15.3725C56.8608 15.3826 57.4801 15.2859 58.0696 15.0867C58.5439 14.9076 58.997 14.6769 59.4208 14.3987C59.4738 14.3635 59.5302 14.3282 59.5831 14.3C60.1775 13.8992 60.858 13.6442 61.5694 13.5556C61.5694 13.605 61.5694 13.6508 61.5694 13.7002C61.5878 14.9156 61.4151 16.1263 61.0578 17.2881V17.2881Z" fill="#011627"/>
<path d="M86.8364 14.6774C86.5572 14.2162 86.199 13.8077 85.778 13.4709C85.3903 13.1707 84.9583 12.9326 84.4974 12.7653C84.8325 12.5828 85.1481 12.3664 85.4393 12.1197C85.7724 11.8328 86.0687 11.5058 86.3213 11.146L94.2768 0.294095H88.8614C88.3308 0.280106 87.8025 0.368752 87.3056 0.555162C86.8399 0.760203 86.4457 1.09915 86.1731 1.52887L80.1368 10.2958C79.7323 10.872 79.0691 11.1601 78.1471 11.1601H77.1522V0.294095H70.929V27.124H77.1522V15.7076H78.6728C79.1395 15.6896 79.6054 15.7615 80.0451 15.9193C80.3921 16.0696 80.6841 16.3234 80.8812 16.646L86.9598 25.9809C87.0694 26.1521 87.1946 26.3127 87.3338 26.4607C87.4749 26.602 87.6367 26.721 87.8136 26.8135C88.0198 26.9168 88.2395 26.9905 88.4663 27.0322C88.7678 27.0857 89.0738 27.1105 89.38 27.1063H94.94L86.8364 14.6774Z" fill="#011627"/>
</svg>
