<svg width="79" height="61" viewBox="0 0 79 61" fill="none" xmlns="http://www.w3.org/2000/svg">
<path fill-rule="evenodd" clip-rule="evenodd" d="M0 3.07579V3.05C0 1.36553 1.36037 0 3.03846 0H3.03898H3.03962H75.9604H75.961H75.9615C77.6396 0 79 1.36553 79 3.05V3.07273V3.07949V54.9C79 56.5178 78.3598 58.0694 77.2201 59.2134C76.0805 60.3573 74.5348 61 72.9231 61H6.07692C4.46523 61 2.91954 60.3573 1.77989 59.2134C0.640245 58.0694 0 56.5178 0 54.9V3.07643V3.07579ZM6.07692 10.0715V50.9968L28.1413 30.5532L6.07692 10.0715ZM68.3927 54.9H10.6074L32.5088 34.6074L37.4468 39.1912C38.6085 40.2696 40.3915 40.2696 41.5532 39.1912L46.4912 34.6074L68.3927 54.9ZM72.9231 50.9968V10.0715L50.8587 30.5532L72.9231 50.9968ZM10.7917 6.1L39.5 32.749L68.2083 6.1H10.7917Z" fill="#011627"/>
</svg>
