<svg width="131" height="153" viewBox="0 0 131 153" fill="none" xmlns="http://www.w3.org/2000/svg">
<path d="M65.5 131.365C101.675 131.365 131 101.958 131 65.6827C131 29.4071 101.675 0 65.5 0C29.3253 0 0 29.4071 0 65.6827C0 101.958 29.3253 131.365 65.5 131.365Z" fill="#4A7C59"/>
<path d="M111.777 109.796C111.777 110.661 111.728 111.52 111.626 112.369C109.744 128.586 90.2291 141.336 66.4329 141.336C42.4103 141.336 22.7555 128.348 21.1917 111.915C21.1216 111.212 21.0893 110.509 21.0893 109.796C21.0893 92.3786 41.3912 78.2548 66.4329 78.2548C91.4747 78.2548 111.777 92.3786 111.777 109.796Z" fill="white"/>
<g opacity="0.2">
<g opacity="0.2">
<g opacity="0.2">
<path opacity="0.2" d="M111.21 109.784C111.21 110.65 111.162 111.509 111.059 112.358C109.178 128.575 89.6629 141.325 65.8667 141.325C41.8441 141.325 22.1893 128.337 20.6255 111.904C20.5554 111.201 20.5231 110.498 20.5231 109.784V109.774C23.9633 124.822 42.7015 136.324 65.3005 136.324C89.0967 136.324 108.611 123.573 110.493 107.357C110.59 106.513 110.644 105.659 110.644 104.793C111.022 106.416 111.21 108.087 111.21 109.784Z" fill="#011627"/>
</g>
</g>
</g>
<path d="M66.4328 142.348C54.6561 142.348 43.4347 139.255 34.8394 133.636C26.1794 127.975 20.9759 120.297 20.1832 112.013C20.1131 111.293 20.0754 110.547 20.0754 109.801C20.0754 101.036 24.9446 92.8165 33.7879 86.6684C42.518 80.5959 54.1114 77.2488 66.4274 77.2488C78.7434 77.2488 90.3368 80.5959 99.0669 86.6684C107.91 92.8219 112.779 101.036 112.779 109.801C112.779 110.699 112.726 111.602 112.623 112.494C111.674 120.675 106.406 128.235 97.7889 133.793C89.2313 139.303 78.0909 142.348 66.4328 142.348ZM66.4328 79.2711C41.9896 79.2711 22.0975 92.9625 22.0975 109.796C22.0975 110.477 22.1298 111.158 22.1945 111.812C23.7206 127.802 43.1489 140.32 66.4328 140.32C77.708 140.32 88.4603 137.395 96.705 132.079C104.804 126.856 109.749 119.815 110.628 112.25C110.725 111.439 110.768 110.612 110.768 109.796C110.768 92.9625 90.8814 79.2711 66.4328 79.2711Z" fill="#011627"/>
<path d="M111.777 109.828C111.777 110.693 111.723 111.553 111.626 112.402C104.05 123.557 86.7133 131.344 66.5461 131.327C46.104 131.317 28.579 123.292 21.1916 111.883C21.1215 111.18 21.0891 110.477 21.0945 109.763C21.0999 101.928 25.2088 94.7687 32.0085 89.2586C40.3288 82.5157 52.6772 78.2494 66.4599 78.2548C80.0754 78.2656 92.2782 82.4454 100.588 89.0586C107.555 94.6065 111.782 101.874 111.777 109.828Z" fill="#F5E663"/>
<g opacity="0.2">
<g opacity="0.2">
<g opacity="0.2">
<path opacity="0.2" d="M95.5457 89.0586C93.6907 101.328 81.2885 110.807 66.2711 110.807C51.3345 110.807 38.9916 101.431 37.0288 89.2587C44.125 82.5157 54.6669 78.2494 66.422 78.2548C78.0424 78.2656 88.4602 82.4454 95.5457 89.0586Z" fill="#011627"/>
</g>
</g>
</g>
<g opacity="0.2">
<g opacity="0.2">
<g opacity="0.2">
<path opacity="0.2" d="M90.6874 114.511C83.4347 125.315 65.651 119.231 65.651 119.231C46.2496 124.985 40.3343 113.153 40.3343 113.153C42.0867 114.732 45.3706 117.063 51.0595 117.712C59.9028 118.723 65.7103 115.181 65.7103 115.181C65.7103 115.181 70.0026 117.679 78.5925 117.712C84.6588 117.739 88.428 116.144 90.6874 114.511Z" fill="#011627"/>
</g>
</g>
</g>
<path d="M66.5945 132.339C66.5783 132.339 66.5621 132.339 66.5405 132.339C46.298 132.322 28.1638 124.509 20.3396 112.434C20.2533 112.299 20.1994 112.142 20.1832 111.98C20.1131 111.255 20.0807 110.509 20.0807 109.763C20.0861 100.998 24.9608 92.784 33.8095 86.6413C42.5342 80.5797 54.1114 77.2434 66.4111 77.2434C66.4273 77.2434 66.4435 77.2434 66.4597 77.2434C78.7756 77.2542 90.3636 80.6068 99.0937 86.6846C107.932 92.8435 112.801 101.063 112.795 109.828C112.795 110.726 112.742 111.629 112.639 112.521C112.617 112.683 112.564 112.84 112.472 112.975C104.459 124.741 86.4596 132.339 66.5945 132.339ZM22.1676 111.537C29.706 122.935 47.0852 130.3 66.5405 130.311C66.5567 130.311 66.5783 130.311 66.5945 130.311C85.6993 130.311 102.944 123.146 110.649 112.029C110.725 111.299 110.768 110.552 110.768 109.817C110.773 101.733 106.217 94.1088 97.9343 88.3392C89.544 82.4939 78.3604 79.2712 66.4543 79.2603C66.4381 79.2603 66.4219 79.2603 66.4111 79.2603C54.5212 79.2603 43.3538 82.4669 34.9634 88.296C26.6755 94.0548 22.1082 101.674 22.1029 109.758C22.0975 110.363 22.119 110.958 22.1676 111.537Z" fill="#011627"/>
<path d="M32.3322 116.382C21.2133 111.315 17.1745 122.205 17.1745 122.205C11.367 118.658 17.4279 113.083 17.4279 113.083C17.4279 113.083 11.8685 107.752 14.2249 98.0346C14.2735 97.8184 14.3328 97.5967 14.3921 97.375C17.1691 87.2417 36.6244 82.9375 36.6244 82.9375C37.2984 84.1541 37.7136 85.2734 37.9293 86.3225C38.9107 91.1512 35.492 94.3901 32.5856 98.1374C29.0483 102.696 29.5551 109.79 29.5551 109.79C34.6023 111.569 32.3322 116.382 32.3322 116.382Z" fill="#F5E663"/>
<g opacity="0.6">
<g opacity="0.6">
<g opacity="0.6">
<path opacity="0.6" d="M37.9292 86.3277C26.9128 88.4204 19.0886 93.6709 14.2247 98.04C14.2733 97.8237 14.3326 97.602 14.3919 97.3803C17.1689 87.247 36.6243 82.9427 36.6243 82.9427C37.2983 84.1594 37.7189 85.2841 37.9292 86.3277Z" fill="white"/>
</g>
</g>
</g>
<g opacity="0.2">
<g opacity="0.2">
<g opacity="0.2">
<path opacity="0.2" d="M17.1422 122.205C17.1422 122.205 17.8863 120.199 19.6118 118.312C21.305 112.569 24.9394 109.79 24.9394 109.79C16.4034 107.741 16.6838 97.7317 17.525 92.2001C16.0313 93.7195 14.8936 95.439 14.3597 97.3748C11.5827 107.508 17.3902 113.083 17.3902 113.083C17.3902 113.083 11.3347 118.663 17.1422 122.205Z" fill="#011627"/>
</g>
</g>
</g>
<path d="M36.6566 83.0942C33.1948 84.3541 29.7977 85.7329 26.5731 87.3713C24.9608 88.1933 23.397 89.0855 21.925 90.075C20.4529 91.0699 19.0563 92.1514 17.8915 93.4167C16.7052 94.6658 15.8101 96.1258 15.3626 97.7209C14.9042 99.4242 14.6616 101.176 14.667 102.917C14.6778 104.658 14.9797 106.389 15.5675 108.011L15.794 108.617L16.0582 109.206L16.193 109.498L16.344 109.785C16.4464 109.974 16.5435 110.169 16.6513 110.352L16.991 110.899L17.3523 111.423C17.4817 111.591 17.6058 111.758 17.7406 111.921C17.87 112.072 18.021 112.25 18.1234 112.353L18.1288 112.358C18.5278 112.759 18.5332 113.408 18.1342 113.813C18.1288 113.818 18.118 113.829 18.1126 113.835C17.994 113.948 17.8322 114.11 17.6974 114.262C17.5572 114.413 17.4224 114.575 17.293 114.738C17.0288 115.062 16.7861 115.397 16.5704 115.743C16.1391 116.436 15.8209 117.171 15.7131 117.879C15.6106 118.588 15.7293 119.242 16.0851 119.821C16.441 120.399 17.0288 120.907 17.7082 121.324L16.193 121.848C16.2847 121.605 16.3601 121.437 16.4518 121.237C16.5381 121.048 16.6352 120.859 16.7268 120.675C16.9155 120.307 17.1258 119.95 17.3469 119.599C17.7891 118.901 18.2852 118.231 18.846 117.609C19.9622 116.365 21.3588 115.311 22.9657 114.657C23.7637 114.327 24.6157 114.116 25.4677 114.008C25.8937 113.943 26.325 113.937 26.751 113.921C26.9667 113.921 27.177 113.932 27.3873 113.943L27.7055 113.954L28.0182 113.992C29.706 114.17 31.3021 114.678 32.785 115.354L31.2967 115.9C31.3021 115.884 31.3398 115.798 31.3614 115.743L31.4315 115.549C31.4747 115.414 31.5124 115.278 31.5501 115.143C31.6149 114.867 31.6634 114.592 31.6903 114.316C31.7389 113.77 31.6796 113.251 31.5124 112.796C31.3345 112.348 31.0541 111.948 30.6442 111.618C30.2398 111.288 29.7437 111.012 29.1883 110.807L29.1506 110.79C28.7516 110.644 28.4981 110.277 28.482 109.877C28.4658 109.574 28.4658 109.32 28.4658 109.044C28.4658 108.773 28.4712 108.508 28.4873 108.238C28.5089 107.703 28.5467 107.173 28.606 106.643C28.7192 105.583 28.9133 104.529 29.2099 103.501C29.5065 102.474 29.9271 101.474 30.4501 100.538C30.5903 100.306 30.7359 100.079 30.8761 99.8514C31.0163 99.6243 31.1996 99.4188 31.356 99.2079C31.5178 98.997 31.685 98.7916 31.8791 98.6023C32.0678 98.4131 32.2565 98.2292 32.4507 98.0508C32.5154 97.9913 32.6124 97.9967 32.6717 98.0616C32.7149 98.1102 32.7257 98.1751 32.6987 98.2292L32.6933 98.24C32.2727 99.1863 31.9006 100.1 31.6256 101.046C31.356 101.993 31.1296 102.944 30.9732 103.907C30.8168 104.875 30.6982 105.843 30.6227 106.821C30.5849 107.308 30.5634 107.8 30.558 108.287C30.5526 108.53 30.558 108.773 30.5634 109.017C30.5688 109.255 30.5795 109.509 30.5957 109.714L29.8893 108.784C30.6173 109.033 31.3506 109.379 32.0193 109.904C32.6825 110.423 33.2487 111.153 33.5776 111.975C33.9012 112.796 33.9928 113.672 33.9335 114.484C33.9066 114.895 33.8365 115.289 33.7448 115.679C33.6963 115.873 33.6423 116.062 33.5776 116.257C33.5453 116.354 33.5129 116.446 33.4752 116.544C33.4374 116.646 33.4051 116.722 33.3458 116.863C33.0869 117.425 32.4291 117.668 31.8683 117.414L31.8575 117.409C30.5364 116.809 29.1614 116.387 27.7863 116.225L27.5275 116.192L27.2687 116.181C27.0961 116.176 26.9236 116.16 26.7564 116.16C26.4167 116.176 26.0716 116.171 25.7373 116.225C25.0633 116.3 24.4 116.446 23.7745 116.701C22.5127 117.187 21.3696 118.009 20.4151 119.042C19.9352 119.556 19.4984 120.123 19.1156 120.724C18.9269 121.026 18.7381 121.329 18.5764 121.648C18.4955 121.805 18.4146 121.962 18.3391 122.124C18.269 122.275 18.1881 122.454 18.1396 122.573L18.1288 122.6C17.9185 123.13 17.3254 123.395 16.7915 123.184C16.7322 123.162 16.6729 123.13 16.6244 123.097C15.767 122.562 14.9204 121.865 14.3219 120.886C14.0199 120.405 13.815 119.842 13.7072 119.269C13.6047 118.696 13.6047 118.117 13.691 117.571C13.8635 116.473 14.3219 115.522 14.8449 114.667C15.1091 114.24 15.4003 113.84 15.7131 113.456C15.8694 113.262 16.0312 113.078 16.1984 112.894C16.3709 112.705 16.5273 112.542 16.7376 112.342L16.7214 113.824C16.495 113.602 16.3494 113.424 16.1822 113.224C16.0204 113.029 15.8695 112.829 15.7185 112.629L15.2925 112.018L14.9042 111.385C14.7748 111.174 14.667 110.953 14.5483 110.736L14.3758 110.412L14.2248 110.077L13.9228 109.406L13.664 108.714C12.99 106.865 12.6557 104.902 12.6395 102.955C12.6233 101.003 12.9199 99.0727 13.389 97.2018C13.4483 96.9639 13.54 96.7152 13.6155 96.4772L13.7341 96.115C13.7773 95.996 13.8312 95.8824 13.8851 95.7635C13.9876 95.531 14.0846 95.2984 14.1925 95.0659L14.5591 94.4062C14.6724 94.1791 14.8126 93.9737 14.9528 93.7682C15.093 93.5627 15.2224 93.3464 15.3734 93.1463C15.6753 92.757 15.9719 92.3515 16.3062 91.9946C16.9479 91.243 17.6759 90.5941 18.4146 89.9668C19.1695 89.3666 19.9406 88.7826 20.7548 88.2852C22.3617 87.2524 24.0711 86.4251 25.8074 85.7005C27.5437 84.9759 29.3231 84.3919 31.1188 83.8944C32.9198 83.4186 34.7424 83.0185 36.5919 82.8022C36.6782 82.7914 36.7537 82.8508 36.7645 82.9374C36.7752 83.0022 36.7267 83.0671 36.6566 83.0942Z" fill="#011627"/>
<path d="M16.7377 112.342C16.9426 112.212 17.1098 112.137 17.2931 112.045C17.4711 111.958 17.649 111.883 17.8324 111.807C18.1936 111.661 18.5549 111.531 18.9216 111.428C19.2883 111.32 19.6549 111.239 20.027 111.18C20.3937 111.115 20.7658 111.093 21.127 111.082C20.8089 111.255 20.5015 111.439 20.2157 111.65C19.93 111.856 19.6603 112.077 19.4069 112.315C19.1535 112.553 18.9162 112.796 18.6951 113.056C18.5873 113.186 18.4794 113.315 18.377 113.445C18.2799 113.575 18.1667 113.721 18.1128 113.829C17.8378 114.354 17.1961 114.554 16.673 114.278C16.15 114.002 15.9505 113.359 16.2255 112.834C16.3171 112.661 16.4466 112.526 16.6029 112.429L16.7377 112.342Z" fill="#011627"/>
<path d="M19.2343 120.469C19.1911 120.55 19.1318 120.659 18.9808 120.794C18.8352 120.929 18.544 121.059 18.2637 121.032C17.9886 121.015 17.8053 120.897 17.7029 120.821C17.6489 120.778 17.6112 120.74 17.5788 120.707L17.5734 120.702L17.5465 120.669C17.5303 120.648 17.5087 120.615 17.5033 120.61L17.471 120.556L17.4332 120.475L17.3793 120.329C17.347 120.237 17.3146 120.145 17.2876 120.053C17.2337 119.869 17.1852 119.685 17.1421 119.507C17.0558 119.139 16.9911 118.771 16.9587 118.398C16.9264 118.025 16.921 117.652 16.9695 117.285C17.0126 116.917 17.1259 116.555 17.3092 116.263C17.2876 116.609 17.3577 116.933 17.4764 117.23C17.5896 117.533 17.746 117.809 17.9239 118.074C18.1019 118.339 18.296 118.588 18.5063 118.826C18.6088 118.945 18.722 119.058 18.8298 119.166C18.8838 119.22 18.9377 119.274 18.997 119.323C19.024 119.345 19.0509 119.372 19.0779 119.388C19.0887 119.399 19.0995 119.404 19.1102 119.41L19.1156 119.404C19.1156 119.404 19.0995 119.377 19.0887 119.366L19.0725 119.345L19.0671 119.339C19.0347 119.307 18.997 119.269 18.9485 119.226C18.846 119.145 18.6627 119.031 18.3877 119.015C18.1127 118.993 17.8161 119.123 17.6759 119.258C17.5249 119.393 17.4656 119.507 17.4278 119.583C17.6705 119.08 18.2798 118.869 18.7813 119.118C19.2666 119.361 19.4769 119.966 19.2343 120.469Z" fill="#011627"/>
<path d="M20.9597 116.976C20.895 116.911 20.8195 116.857 20.7386 116.809C20.6955 116.787 20.6524 116.765 20.6092 116.749C20.5391 116.738 20.6254 116.717 20.2641 116.684C19.9568 116.646 19.4714 116.944 19.369 117.22C19.2288 117.544 19.2935 117.431 19.2665 117.501C19.2557 117.571 19.245 117.641 19.2504 117.712C19.2504 117.75 19.2557 117.782 19.2557 117.814L19.2611 117.847L19.2665 117.874L19.2827 117.933C19.2881 117.955 19.2989 117.977 19.2989 117.977C19.3043 117.987 19.3043 117.977 19.3043 117.971C19.3043 117.955 19.3043 117.933 19.2989 117.912L19.2827 117.771L19.2504 117.479C19.2342 117.285 19.2234 117.09 19.2234 116.895C19.218 116.506 19.245 116.122 19.3043 115.749C19.4229 115.003 19.6817 114.289 20.0808 113.71C19.9999 114.408 20.1023 115.073 20.3126 115.679C20.4151 115.981 20.5499 116.268 20.7009 116.544C20.7764 116.679 20.8573 116.814 20.9436 116.944L21.073 117.139L21.1431 117.236C21.1539 117.252 21.17 117.274 21.1808 117.295C21.1862 117.312 21.197 117.322 21.2078 117.349C21.2132 117.36 21.224 117.387 21.2347 117.42L21.2509 117.485L21.2563 117.517L21.2617 117.555C21.2671 117.587 21.2671 117.625 21.2671 117.663C21.2671 117.733 21.2617 117.809 21.2509 117.879C21.224 117.95 21.2887 117.836 21.1485 118.166C21.046 118.442 20.5607 118.739 20.2533 118.701C19.892 118.669 19.9729 118.647 19.9028 118.636C19.8597 118.62 19.8166 118.598 19.7734 118.577C19.6871 118.534 19.6116 118.474 19.5469 118.409C19.1479 118.015 19.1425 117.376 19.5361 116.976C19.9244 116.587 20.5607 116.582 20.9597 116.976Z" fill="#011627"/>
<path d="M22.4805 115.024C22.6099 114.603 22.7501 114.24 22.9011 113.862C23.0575 113.489 23.2192 113.121 23.4026 112.764C23.7692 112.05 24.1952 111.358 24.7453 110.812C24.481 111.537 24.4055 112.283 24.3786 113.024C24.3678 113.397 24.3732 113.764 24.3894 114.132C24.4109 114.494 24.4379 114.878 24.4864 115.208C24.5781 115.776 24.1898 116.311 23.6183 116.403C23.0521 116.495 22.5182 116.106 22.4265 115.533C22.3996 115.376 22.4158 115.219 22.4589 115.073L22.4805 115.024Z" fill="#011627"/>
<path d="M114.899 122.205C114.899 122.205 114.155 120.199 112.429 118.312C110.132 115.792 106.093 113.483 99.741 116.376C99.741 116.376 97.4655 111.564 102.518 109.79C102.518 109.79 103.025 102.696 99.4876 98.1374C95.9502 93.579 91.6579 89.7777 95.4433 82.9375C95.4433 82.9375 108.18 85.7547 114.511 92.2002C116.004 93.7196 117.142 95.4391 117.676 97.375C120.453 107.508 114.645 113.083 114.645 113.083C114.645 113.083 120.712 118.663 114.899 122.205Z" fill="#F5E663"/>
<g opacity="0.6">
<g opacity="0.6">
<g opacity="0.6">
<path opacity="0.6" d="M93.6369 85.9546C104.653 88.0473 112.478 93.2978 117.341 97.667C117.293 97.4507 117.234 97.229 117.174 97.0073C114.397 86.8739 94.9418 82.5696 94.9418 82.5696C94.2678 83.7862 93.8526 84.911 93.6369 85.9546Z" fill="white"/>
</g>
</g>
</g>
<path d="M95.4595 82.8019C97.3145 83.0182 99.1317 83.4129 100.938 83.8888C102.734 84.3808 104.519 84.9648 106.255 85.6894C107.991 86.4086 109.701 87.2359 111.307 88.2687C112.122 88.7662 112.893 89.3448 113.648 89.945C114.387 90.5722 115.114 91.2211 115.756 91.9727C116.09 92.3296 116.387 92.7351 116.694 93.1245C116.845 93.3191 116.975 93.5354 117.115 93.7463C117.255 93.9518 117.395 94.1627 117.509 94.3844L117.875 95.0441C117.983 95.2712 118.08 95.5091 118.183 95.7416C118.231 95.8606 118.285 95.9741 118.334 96.0931L118.452 96.4554C118.528 96.6987 118.619 96.942 118.679 97.18C119.148 99.0509 119.45 100.981 119.434 102.933C119.423 104.885 119.089 106.848 118.415 108.698L118.156 109.39L117.854 110.06L117.703 110.395L117.53 110.72C117.412 110.936 117.304 111.158 117.174 111.369L116.786 112.001L116.365 112.612C116.214 112.813 116.063 113.013 115.902 113.207C115.735 113.407 115.589 113.58 115.362 113.807L115.346 112.326C115.557 112.526 115.713 112.688 115.886 112.877C116.053 113.061 116.214 113.245 116.371 113.44C116.684 113.824 116.975 114.224 117.239 114.651C117.762 115.505 118.22 116.457 118.393 117.555C118.479 118.101 118.485 118.685 118.377 119.253C118.269 119.82 118.069 120.388 117.767 120.869C117.169 121.848 116.322 122.546 115.465 123.081C114.98 123.384 114.349 123.238 114.047 122.751C114.014 122.697 113.987 122.643 113.966 122.589L113.955 122.556C113.907 122.438 113.831 122.259 113.756 122.108C113.68 121.951 113.599 121.789 113.518 121.632C113.351 121.318 113.168 121.01 112.979 120.707C112.591 120.107 112.154 119.545 111.674 119.026C110.72 117.993 109.577 117.176 108.315 116.69C107.689 116.441 107.021 116.295 106.352 116.214C106.018 116.165 105.673 116.165 105.333 116.154C105.16 116.154 104.988 116.17 104.821 116.176L104.562 116.187L104.303 116.219C102.928 116.381 101.553 116.803 100.232 117.409L100.221 117.414C99.6601 117.668 99.0023 117.425 98.7434 116.863C98.6787 116.722 98.6518 116.646 98.614 116.544C98.5763 116.446 98.5439 116.354 98.5116 116.257C98.4469 116.068 98.3929 115.873 98.3444 115.678C98.2473 115.289 98.1826 114.894 98.1503 114.483C98.091 113.667 98.1772 112.796 98.5062 111.974C98.8351 111.152 99.3959 110.422 100.059 109.903C100.722 109.379 101.456 109.027 102.184 108.779L101.477 109.709C101.494 109.503 101.504 109.244 101.51 109.011C101.515 108.768 101.515 108.525 101.515 108.281C101.51 107.795 101.488 107.302 101.45 106.816C101.375 105.837 101.256 104.869 101.1 103.901C100.943 102.933 100.712 101.987 100.447 101.041C100.172 100.094 99.8003 99.1807 99.3797 98.2344L99.3743 98.2236C99.3366 98.1425 99.3743 98.0505 99.4552 98.0181C99.5145 97.991 99.5792 98.0073 99.6278 98.0451C99.8219 98.2236 100.016 98.402 100.199 98.5967C100.393 98.7805 100.566 98.986 100.722 99.1969C100.879 99.4078 101.062 99.6132 101.208 99.8404C101.348 100.067 101.494 100.295 101.634 100.527C102.157 101.463 102.577 102.463 102.874 103.49C103.171 104.518 103.37 105.572 103.483 106.632C103.537 107.162 103.58 107.692 103.602 108.227C103.613 108.492 103.618 108.762 103.623 109.033C103.623 109.309 103.623 109.563 103.607 109.866C103.586 110.293 103.316 110.644 102.939 110.779L102.896 110.796C102.34 111.001 101.839 111.277 101.44 111.607C101.035 111.937 100.749 112.337 100.577 112.785C100.41 113.24 100.35 113.759 100.399 114.305C100.426 114.575 100.469 114.856 100.539 115.132C100.577 115.267 100.615 115.408 100.658 115.538L100.728 115.732C100.749 115.787 100.782 115.873 100.793 115.889L99.3042 115.343C100.782 114.667 102.383 114.154 104.066 113.975L104.378 113.937L104.697 113.921C104.907 113.916 105.123 113.899 105.333 113.899C105.759 113.916 106.19 113.921 106.616 113.986C107.468 114.094 108.32 114.3 109.118 114.629C110.725 115.278 112.122 116.333 113.243 117.576C113.804 118.198 114.3 118.869 114.742 119.566C114.963 119.918 115.174 120.275 115.362 120.642C115.46 120.826 115.551 121.015 115.638 121.205C115.729 121.399 115.805 121.572 115.896 121.816L114.381 121.291C115.061 120.875 115.648 120.367 116.004 119.788C116.36 119.209 116.479 118.56 116.376 117.847C116.274 117.138 115.95 116.398 115.519 115.711C115.303 115.365 115.061 115.03 114.796 114.705C114.667 114.543 114.527 114.386 114.386 114.235C114.252 114.083 114.09 113.921 113.971 113.807C113.561 113.418 113.54 112.769 113.928 112.358L113.95 112.337L113.955 112.331C114.058 112.229 114.209 112.055 114.338 111.899C114.467 111.736 114.597 111.569 114.726 111.401L115.087 110.877L115.422 110.331C115.53 110.147 115.627 109.952 115.729 109.763L115.88 109.476L116.015 109.184L116.279 108.595L116.506 107.989C117.093 106.367 117.395 104.637 117.401 102.895C117.406 101.154 117.158 99.4024 116.7 97.6991C116.247 96.1039 115.352 94.6439 114.165 93.3948C112.995 92.1295 111.599 91.0481 110.127 90.0531C108.654 89.0636 107.085 88.1714 105.478 87.3549C102.254 85.7219 98.8513 84.343 95.3894 83.0885H95.384C95.3031 83.0615 95.26 82.9695 95.2924 82.8884C95.3247 82.8343 95.3894 82.7965 95.4595 82.8019Z" fill="#011627"/>
<path d="M113.961 113.829C113.907 113.721 113.793 113.575 113.696 113.445C113.594 113.315 113.486 113.186 113.378 113.056C113.157 112.796 112.92 112.553 112.666 112.315C112.413 112.077 112.143 111.856 111.857 111.65C111.572 111.439 111.264 111.255 110.946 111.082C111.307 111.093 111.68 111.115 112.046 111.18C112.418 111.239 112.785 111.32 113.152 111.428C113.518 111.537 113.885 111.661 114.241 111.807C114.419 111.883 114.602 111.958 114.78 112.045C114.964 112.137 115.125 112.212 115.336 112.342L115.47 112.429C115.972 112.742 116.123 113.402 115.81 113.899C115.497 114.402 114.84 114.554 114.343 114.24C114.176 114.137 114.047 113.991 113.961 113.829Z" fill="#011627"/>
<path d="M114.661 119.583C114.624 119.502 114.564 119.388 114.413 119.258C114.273 119.123 113.977 118.993 113.702 119.015C113.427 119.031 113.243 119.145 113.141 119.226C113.087 119.269 113.049 119.307 113.022 119.339L113.017 119.345L113.001 119.366C112.99 119.377 112.974 119.404 112.974 119.404L112.979 119.41C112.99 119.404 113.001 119.399 113.011 119.388C113.038 119.372 113.065 119.345 113.092 119.323C113.146 119.274 113.2 119.22 113.259 119.166C113.367 119.058 113.481 118.945 113.583 118.826C113.793 118.588 113.993 118.339 114.165 118.074C114.343 117.809 114.5 117.528 114.613 117.23C114.732 116.928 114.802 116.609 114.78 116.263C114.963 116.555 115.071 116.917 115.12 117.285C115.168 117.652 115.163 118.025 115.131 118.398C115.098 118.772 115.034 119.139 114.947 119.507C114.904 119.691 114.856 119.869 114.802 120.053C114.775 120.145 114.742 120.237 114.71 120.329L114.656 120.475L114.618 120.556L114.586 120.61C114.581 120.621 114.559 120.653 114.543 120.67L114.516 120.702L114.51 120.707C114.478 120.74 114.44 120.778 114.386 120.821C114.284 120.902 114.101 121.016 113.826 121.032C113.551 121.053 113.254 120.924 113.108 120.794C112.957 120.659 112.898 120.545 112.855 120.469C112.612 119.967 112.817 119.361 113.319 119.112C113.809 118.869 114.413 119.08 114.661 119.583Z" fill="#011627"/>
<path d="M112.531 118.42C112.467 118.485 112.391 118.544 112.305 118.588C112.262 118.609 112.219 118.631 112.176 118.647C112.105 118.658 112.186 118.68 111.825 118.712C111.512 118.75 111.032 118.453 110.93 118.177C110.79 117.852 110.854 117.966 110.827 117.89C110.817 117.82 110.806 117.75 110.811 117.674C110.811 117.636 110.817 117.604 110.817 117.566L110.822 117.528L110.827 117.495L110.844 117.431C110.854 117.398 110.865 117.366 110.871 117.36C110.881 117.328 110.892 117.317 110.898 117.306C110.914 117.279 110.925 117.263 110.935 117.247L111.005 117.149L111.135 116.955C111.221 116.825 111.302 116.695 111.378 116.555C111.529 116.279 111.658 115.992 111.766 115.689C111.976 115.084 112.079 114.419 111.998 113.721C112.397 114.3 112.656 115.008 112.774 115.76C112.833 116.133 112.86 116.517 112.855 116.906C112.855 117.101 112.844 117.295 112.828 117.49L112.796 117.782L112.78 117.923C112.78 117.944 112.774 117.966 112.774 117.982C112.774 117.987 112.774 117.998 112.78 117.988C112.78 117.988 112.79 117.966 112.796 117.944L112.812 117.885L112.817 117.858L112.823 117.825C112.828 117.793 112.828 117.755 112.828 117.723C112.828 117.652 112.823 117.582 112.812 117.512C112.785 117.441 112.85 117.555 112.709 117.23C112.607 116.955 112.122 116.657 111.814 116.695C111.453 116.728 111.534 116.749 111.464 116.76C111.421 116.776 111.378 116.798 111.334 116.82C111.253 116.863 111.173 116.922 111.113 116.987C111.512 116.592 112.149 116.598 112.542 116.998C112.936 117.382 112.931 118.025 112.531 118.42Z" fill="#011627"/>
<path d="M107.581 115.208C107.635 114.884 107.662 114.494 107.678 114.132C107.695 113.764 107.705 113.391 107.689 113.024C107.662 112.283 107.587 111.537 107.323 110.812C107.873 111.358 108.304 112.056 108.665 112.764C108.849 113.121 109.01 113.489 109.167 113.862C109.318 114.24 109.463 114.603 109.587 115.024L109.603 115.068C109.771 115.619 109.458 116.203 108.908 116.371C108.358 116.539 107.775 116.225 107.608 115.673C107.565 115.517 107.554 115.354 107.581 115.208Z" fill="#011627"/>
<path d="M38.8999 111.569C39.0563 111.602 39.1749 111.721 39.2935 111.812L39.6494 112.115C39.8813 112.321 40.1186 112.521 40.3612 112.715C40.8357 113.105 41.3264 113.478 41.8387 113.813C42.8578 114.484 43.9363 115.062 45.0633 115.5C47.3065 116.409 49.7006 116.852 52.1056 116.987C54.5159 117.117 56.9317 116.966 59.2719 116.479C60.442 116.236 61.6014 115.928 62.7176 115.517C62.998 115.414 63.273 115.311 63.548 115.198C63.7907 115.1 64.1789 114.938 64.5294 114.846C65.2466 114.651 65.9961 114.603 66.7294 114.689C67.0961 114.732 67.452 114.814 67.8025 114.927L68.2716 115.089C68.4118 115.138 68.552 115.187 68.6922 115.235C69.2584 115.425 69.83 115.587 70.4124 115.738C71.5717 116.041 72.758 116.263 73.9551 116.436C75.1522 116.609 76.3601 116.717 77.5733 116.787C78.1772 116.82 78.792 116.847 79.3905 116.836H80.2964C80.5984 116.831 80.9057 116.852 81.2023 116.82C81.8009 116.771 82.4048 116.744 83.0087 116.685C83.6019 116.593 84.2004 116.517 84.7936 116.414C85.9691 116.171 87.15 115.884 88.2554 115.419C88.827 115.225 89.3554 114.933 89.9055 114.673L90.6819 114.208C90.9408 114.051 91.178 113.867 91.4315 113.694C92.4075 112.975 93.3134 112.121 93.9658 111.061C93.7448 111.645 93.3997 112.175 93.0384 112.694C92.6501 113.191 92.2295 113.667 91.7658 114.1C91.5285 114.305 91.3021 114.538 91.0486 114.727L90.2829 115.3C89.7437 115.636 89.2152 115.998 88.6329 116.268C87.5005 116.868 86.2872 117.269 85.0632 117.625C84.4485 117.793 83.823 117.901 83.1975 118.036C82.572 118.134 81.9411 118.209 81.3048 118.296C78.7704 118.539 76.2468 118.512 73.7178 118.22C72.456 118.08 71.1996 117.853 69.954 117.561C69.3339 117.409 68.7138 117.231 68.0991 117.036C67.9481 116.987 67.7917 116.939 67.6407 116.879L67.2309 116.739C66.9883 116.663 66.7402 116.609 66.4922 116.582C65.9907 116.517 65.4838 116.549 65.0039 116.679C64.7559 116.744 64.5671 116.82 64.2328 116.955C63.9309 117.074 63.6289 117.187 63.3269 117.29C62.1083 117.707 60.8627 118.026 59.6009 118.247C57.0773 118.696 54.4944 118.761 51.9708 118.464C50.709 118.318 49.4472 118.091 48.2231 117.739C46.9991 117.388 45.802 116.928 44.6696 116.344C43.5427 115.754 42.475 115.057 41.5152 114.235C41.0352 113.824 40.5823 113.386 40.1563 112.932C39.946 112.699 39.7411 112.467 39.5362 112.229L39.2342 111.877C39.1372 111.758 39.0455 111.623 38.8999 111.569Z" fill="#011627"/>
<path d="M24.2491 115.116C19.8706 115.641 10.8601 129.808 23.9957 142.223C23.9957 142.223 18.1882 144.754 19.1966 149.063C19.1966 149.063 25.7212 151.372 35.2548 150.291C37.8377 149.999 39.822 147.858 39.8921 145.246C40.1402 135.599 39.1264 113.327 24.2491 115.116Z" fill="#F5E663"/>
<g opacity="0.6">
<g opacity="0.6">
<g opacity="0.6">
<path opacity="0.6" d="M17.0989 128.775C21.224 115.949 29.679 117.204 33.9605 118.826C31.6742 116.176 28.5143 114.657 24.1843 115.176C21.3965 115.511 16.743 121.362 17.0989 128.775Z" fill="white"/>
</g>
</g>
</g>
<g opacity="0.2">
<g opacity="0.2">
<g opacity="0.2">
<path opacity="0.2" d="M34.1223 150.167C34.8772 150.102 35.6483 150.015 36.4409 149.902C38.339 149.637 39.7734 148.047 39.8489 146.127C40.0645 140.65 39.9675 129.348 36.2414 121.919C36.9694 127.234 39.919 143.002 25.5216 141.623C25.5216 141.628 35.0821 141.536 34.1223 150.167Z" fill="#011627"/>
</g>
</g>
</g>
<path d="M30.1321 151.589C23.4025 151.589 19.0779 150.091 18.8568 150.015C18.5333 149.902 18.2906 149.626 18.2097 149.291C17.3416 145.597 20.4529 143.099 22.3079 141.974C14.4351 133.793 15.9612 125.558 17.0288 122.308C18.4578 117.95 21.5098 114.424 24.1251 114.111C27.8997 113.656 31.1188 114.619 33.6964 116.976C40.4421 123.135 41.1053 137.346 40.9004 145.267C40.8196 148.35 38.4416 150.94 35.368 151.291C33.4968 151.502 31.7497 151.589 30.1321 151.589ZM20.097 148.279C21.8495 148.782 27.5384 150.145 35.1361 149.28C37.2121 149.042 38.8244 147.295 38.8783 145.219C39.0347 139.119 38.7166 124.303 32.3375 118.474C30.1806 116.506 27.5761 115.738 24.3677 116.122C22.9819 116.29 20.3235 118.75 18.9485 122.941C17.719 126.683 16.8347 134.064 24.6859 141.482C24.9339 141.715 25.0471 142.061 24.9878 142.396C24.9285 142.731 24.7074 143.018 24.3947 143.153C24.3515 143.169 19.9029 145.165 20.097 148.279Z" fill="#011627"/>
<path d="M23.6397 141.272C23.8446 141.223 23.9902 141.201 24.1574 141.174C24.3191 141.153 24.4809 141.131 24.6427 141.12C24.9662 141.088 25.2844 141.077 25.6025 141.082C26.2388 141.088 26.8805 141.163 27.4952 141.309C28.1099 141.455 28.7031 141.704 29.2261 142.023C29.76 142.337 30.1913 142.786 30.5634 143.234C30.0727 142.899 29.5712 142.623 29.0212 142.483C28.4766 142.342 27.932 142.283 27.3873 142.31C26.8427 142.342 26.3089 142.44 25.7912 142.586C25.5324 142.661 25.279 142.748 25.0309 142.845C24.9069 142.894 24.7883 142.948 24.6696 143.002C24.5564 143.056 24.4216 143.121 24.3515 143.164C23.877 143.483 23.2353 143.353 22.9171 142.878C22.599 142.402 22.7284 141.758 23.2029 141.439C23.3054 141.369 23.4132 141.326 23.5265 141.293L23.6397 141.272Z" fill="#011627"/>
<path d="M21.7201 149.323C21.801 148.923 21.9143 148.517 22.0706 148.139C22.227 147.76 22.4211 147.398 22.6584 147.068C22.8957 146.744 23.1815 146.457 23.4942 146.235C23.8124 146.014 24.1575 145.868 24.4972 145.765C24.2384 146.014 24.0227 146.284 23.8663 146.576C23.7153 146.873 23.6236 147.182 23.5751 147.484C23.5266 147.793 23.5266 148.101 23.5535 148.404C23.5859 148.712 23.6452 148.998 23.7369 149.296C23.904 149.853 23.5913 150.442 23.0359 150.61C22.4805 150.777 21.8927 150.464 21.7255 149.907C21.677 149.739 21.6662 149.566 21.6986 149.404L21.7201 149.323Z" fill="#011627"/>
<path d="M27.01 149.929C27.0693 148.869 24.0065 150.339 25.1173 150.193L25.1119 150.237C25.1065 150.269 25.1065 150.296 25.1011 150.329V150.399V150.404C25.1011 150.41 25.1011 150.426 25.1065 150.426C25.1065 150.421 25.1065 150.426 25.1119 150.415L25.1173 150.377L25.1281 150.285L25.1442 150.091C25.155 149.961 25.1712 149.831 25.1928 149.701C25.2305 149.442 25.2737 149.182 25.333 148.923C25.4462 148.409 25.608 147.901 25.8399 147.414C26.0771 146.933 26.4007 146.468 26.8428 146.154C27.285 145.835 27.8188 145.722 28.2934 145.77C27.8242 145.895 27.4306 146.165 27.1987 146.522C26.9561 146.873 26.8536 147.29 26.8105 147.717C26.7673 148.144 26.7889 148.582 26.8482 149.015C26.8752 149.231 26.9183 149.447 26.9615 149.664C26.983 149.772 27.01 149.88 27.037 149.983L27.0801 150.145L27.1017 150.226L27.1125 150.275L27.1178 150.312L27.1232 150.356V150.366V150.442C27.1232 150.475 27.1178 150.507 27.1125 150.54L27.1071 150.588C28.2179 150.448 25.155 151.913 25.2144 150.853C24.9609 150.356 25.1604 149.745 25.6619 149.491C26.1526 149.231 26.7566 149.431 27.01 149.929Z" fill="#011627"/>
<path d="M29.1668 150.534C29.1614 150.605 29.1722 150.68 29.1884 150.751C29.1938 150.767 29.1938 150.756 29.1938 150.756C29.1992 150.756 29.1992 150.751 29.1992 150.74C29.1992 150.718 29.1992 150.691 29.1938 150.659L29.1776 150.48C29.1668 150.356 29.1614 150.231 29.1561 150.107C29.1507 149.858 29.1507 149.604 29.1668 149.35C29.1992 148.847 29.2855 148.333 29.4742 147.847C29.6575 147.36 29.9703 146.906 30.3747 146.609C30.7791 146.306 31.2482 146.176 31.6904 146.138C31.2914 146.338 30.9409 146.619 30.736 146.96C30.5257 147.301 30.4502 147.674 30.461 148.058C30.4664 148.436 30.5473 148.82 30.6713 149.193C30.7306 149.382 30.8061 149.566 30.887 149.745L31.011 150.015L31.0811 150.156L31.1188 150.237C31.1242 150.248 31.135 150.269 31.1404 150.296C31.1458 150.313 31.1458 150.313 31.1566 150.345C31.1728 150.432 31.1835 150.518 31.1835 150.605C31.162 151.162 30.6928 151.6 30.1374 151.578C29.582 151.567 29.1507 151.097 29.1668 150.534Z" fill="#011627"/>
<path d="M108.849 142.218C108.849 142.218 114.656 144.748 113.648 149.058C113.648 149.058 107.635 151.188 98.7165 150.393C97.9616 150.328 97.1905 150.242 96.3978 150.128C94.4997 149.863 93.0653 148.274 92.9898 146.354C92.7742 140.876 92.8712 129.575 96.5973 122.146C97.2282 120.891 97.9616 119.745 98.8189 118.755C101.105 116.106 104.265 114.586 108.595 115.105C111.383 115.441 116.042 121.291 115.681 128.705C115.481 132.955 113.632 137.702 108.849 142.218Z" fill="#F5E663"/>
<g opacity="0.2">
<g opacity="0.2">
<g opacity="0.2">
<path opacity="0.2" d="M98.7217 150.399C97.9668 150.334 97.1957 150.248 96.403 150.134C94.5049 149.869 93.0705 148.279 92.995 146.36C92.7793 140.882 92.8764 129.581 96.6025 122.151C95.8745 127.467 92.9249 143.234 107.322 141.855C107.322 141.855 97.7565 141.769 98.7217 150.399Z" fill="#011627"/>
</g>
</g>
</g>
<g opacity="0.6">
<g opacity="0.6">
<g opacity="0.6">
<path opacity="0.6" d="M115.681 128.716C111.556 115.889 103.1 117.144 98.8189 118.766C101.105 116.117 104.265 114.597 108.595 115.116C111.383 115.451 116.042 121.302 115.681 128.716Z" fill="white"/>
</g>
</g>
</g>
<path d="M102.712 151.588C100.749 151.588 98.587 151.464 96.2629 151.134C93.8795 150.799 92.0785 148.809 91.9815 146.397C91.7227 139.784 91.9006 123.676 99.0831 117.03C101.671 114.635 104.912 113.651 108.714 114.11C111.329 114.424 114.381 117.95 115.81 122.308C116.878 125.558 118.404 133.793 110.531 141.974C112.386 143.104 115.497 145.597 114.629 149.29C114.548 149.626 114.305 149.901 113.982 150.015C113.755 150.096 109.431 151.588 102.712 151.588ZM106.923 116.025C104.389 116.025 102.265 116.847 100.453 118.517C93.8849 124.595 93.7501 139.984 93.9982 146.316C94.0521 147.744 95.1198 148.928 96.5379 149.128C104.723 150.275 110.898 148.804 112.742 148.274C112.936 145.159 108.487 143.164 108.439 143.142C108.126 143.007 107.905 142.721 107.845 142.385C107.786 142.05 107.899 141.709 108.147 141.477C115.999 134.058 115.114 126.677 113.885 122.935C112.51 118.745 109.851 116.284 108.466 116.117C107.943 116.057 107.425 116.025 106.923 116.025Z" fill="#011627"/>
<path d="M108.493 143.17C108.423 143.121 108.288 143.056 108.174 143.007C108.056 142.953 107.937 142.899 107.813 142.851C107.565 142.753 107.312 142.667 107.053 142.591C106.535 142.445 106.001 142.348 105.457 142.315C104.912 142.283 104.362 142.348 103.823 142.488C103.273 142.623 102.771 142.905 102.281 143.24C102.647 142.786 103.079 142.342 103.613 142.029C104.141 141.709 104.729 141.461 105.344 141.315C105.958 141.169 106.595 141.098 107.236 141.088C107.554 141.082 107.878 141.098 108.196 141.125C108.358 141.136 108.52 141.158 108.681 141.18C108.849 141.207 108.994 141.228 109.199 141.277L109.312 141.304C109.868 141.444 110.207 142.007 110.067 142.558C109.927 143.115 109.366 143.456 108.816 143.316C108.703 143.283 108.59 143.234 108.493 143.17Z" fill="#011627"/>
<path d="M109.102 149.301C109.188 149.009 109.253 148.717 109.285 148.409C109.318 148.106 109.312 147.798 109.264 147.49C109.215 147.182 109.124 146.873 108.973 146.581C108.816 146.289 108.6 146.019 108.342 145.77C108.681 145.868 109.026 146.019 109.345 146.241C109.657 146.463 109.943 146.749 110.18 147.074C110.423 147.398 110.617 147.76 110.768 148.144C110.919 148.523 111.038 148.928 111.119 149.328L111.135 149.409C111.248 149.983 110.876 150.534 110.304 150.648C109.733 150.761 109.183 150.388 109.07 149.815C109.043 149.637 109.053 149.458 109.102 149.301Z" fill="#011627"/>
<path d="M107.635 150.843C107.695 151.902 104.626 150.437 105.743 150.578L105.737 150.529C105.732 150.497 105.732 150.464 105.726 150.432V150.356V150.345L105.732 150.302L105.737 150.264L105.748 150.215L105.77 150.134L105.813 149.972C105.84 149.864 105.867 149.761 105.888 149.653C105.937 149.437 105.974 149.22 106.001 149.004C106.061 148.571 106.082 148.133 106.039 147.706C105.996 147.284 105.888 146.863 105.651 146.511C105.419 146.154 105.02 145.884 104.556 145.759C105.031 145.716 105.565 145.824 106.007 146.143C106.449 146.457 106.772 146.922 107.01 147.403C107.247 147.885 107.403 148.398 107.517 148.912C107.576 149.172 107.619 149.426 107.657 149.691C107.673 149.821 107.689 149.95 107.705 150.08L107.722 150.275L107.732 150.367L107.738 150.405C107.738 150.41 107.738 150.41 107.743 150.415C107.743 150.415 107.743 150.399 107.748 150.394V150.388V150.318C107.748 150.286 107.743 150.259 107.738 150.226L107.732 150.183C108.843 150.323 105.78 148.858 105.84 149.918C106.093 149.42 106.697 149.22 107.198 149.469C107.689 149.734 107.889 150.345 107.635 150.843Z" fill="#011627"/>
<path d="M101.655 150.61C101.655 150.523 101.666 150.437 101.682 150.35C101.688 150.323 101.693 150.318 101.698 150.302C101.709 150.275 101.715 150.253 101.72 150.242L101.758 150.161L101.828 150.021L101.952 149.75C102.033 149.566 102.103 149.382 102.168 149.199C102.292 148.825 102.372 148.442 102.378 148.063C102.383 147.685 102.308 147.306 102.103 146.965C101.898 146.625 101.553 146.344 101.149 146.143C101.591 146.181 102.06 146.311 102.464 146.614C102.868 146.911 103.181 147.366 103.364 147.852C103.553 148.339 103.639 148.853 103.672 149.355C103.688 149.61 103.693 149.858 103.683 150.112C103.677 150.237 103.672 150.361 103.661 150.486L103.645 150.664C103.645 150.696 103.639 150.723 103.639 150.745C103.639 150.761 103.639 150.767 103.645 150.761C103.645 150.756 103.645 150.772 103.65 150.756C103.666 150.686 103.672 150.61 103.672 150.54C103.693 151.097 103.257 151.567 102.701 151.589C102.146 151.61 101.677 151.172 101.655 150.61Z" fill="#011627"/>
<path d="M93.9658 30.6054C89.3986 31.3246 84.8313 31.6977 80.2641 31.9518C75.6968 32.2006 71.1295 32.3412 66.5623 32.3303C61.995 32.3357 57.4278 32.2006 52.8605 31.9464C48.2932 31.6923 43.726 31.3192 39.1587 30.6054H39.1425C39.0886 30.5946 39.0509 30.5459 39.0563 30.4918C39.0617 30.4432 39.1048 30.4053 39.1533 30.4053L46.0069 30.3567L52.8605 30.3404L66.5623 30.308L80.2641 30.3404L87.1176 30.3567L93.9712 30.4053C94.0251 30.4053 94.0737 30.4486 94.0737 30.5081C94.0737 30.5567 94.0359 30.6 93.9874 30.6054H93.9658Z" fill="#011627"/>
<path d="M66.8104 47.9845C74.8333 47.9845 81.3371 42.0315 81.3371 34.6879C81.3371 27.3444 74.8333 21.3914 66.8104 21.3914C58.7875 21.3914 52.2836 27.3444 52.2836 34.6879C52.2836 42.0315 58.7875 47.9845 66.8104 47.9845Z" fill="#011627"/>
<g opacity="0.6">
<g opacity="0.6">
<g opacity="0.6">
<path opacity="0.6" d="M81.3371 34.6879C81.3371 35.2503 81.2994 35.8019 81.2239 36.3426C80.3342 29.7781 74.2193 24.6952 66.8104 24.6952C59.4014 24.6952 53.2866 29.7781 52.3969 36.3426C52.3214 35.8019 52.2836 35.2449 52.2836 34.6879C52.2836 27.3448 58.7867 21.3914 66.8104 21.3914C74.8341 21.3914 81.3371 27.3448 81.3371 34.6879Z" fill="white"/>
</g>
</g>
</g>
<path d="M66.8103 47.9846C73.4366 47.9846 78.8082 44.2418 78.8082 39.6248C78.8082 35.0079 73.4366 31.2651 66.8103 31.2651C60.1841 31.2651 54.8125 35.0079 54.8125 39.6248C54.8125 44.2418 60.1841 47.9846 66.8103 47.9846Z" fill="white"/>
<path d="M66.8103 49.001C59.6386 49.001 53.7988 44.7941 53.7988 39.6302C53.7988 34.4608 59.6332 30.2593 66.8103 30.2593C73.9821 30.2593 79.8219 34.4662 79.8219 39.6302C79.8219 44.7941 73.9875 49.001 66.8103 49.001ZM66.8103 32.2816C60.7494 32.2816 55.8209 35.5747 55.8209 39.6302C55.8209 43.6856 60.7494 46.9787 66.8103 46.9787C72.8713 46.9787 77.7998 43.6856 77.7998 39.6302C77.7998 35.5747 72.8713 32.2816 66.8103 32.2816Z" fill="#011627"/>
<path d="M66.8103 49.0011C58.242 49.0011 51.2752 42.5826 51.2752 34.6879C51.2752 26.7932 58.242 20.3748 66.8103 20.3748C75.3787 20.3748 82.3455 26.7932 82.3455 34.6879C82.3455 42.5826 75.3787 49.0011 66.8103 49.0011ZM66.8103 22.4025C59.3582 22.4025 53.2973 27.9126 53.2973 34.6879C53.2973 41.4633 59.3582 46.9733 66.8103 46.9733C74.2625 46.9733 80.3234 41.4633 80.3234 34.6879C80.3288 27.9126 74.2625 22.4025 66.8103 22.4025Z" fill="#011627"/>
<path d="M31.065 85.733C34.4124 85.733 37.1259 82.4429 37.1259 78.3844C37.1259 74.3259 34.4124 71.0359 31.065 71.0359C27.7177 71.0359 25.0041 74.3259 25.0041 78.3844C25.0041 82.4429 27.7177 85.733 31.065 85.733Z" fill="#F5E663"/>
<path d="M100.032 85.733C103.38 85.733 106.093 82.4429 106.093 78.3844C106.093 74.3259 103.38 71.0359 100.032 71.0359C96.6848 71.0359 93.9713 74.3259 93.9713 78.3844C93.9713 82.4429 96.6848 85.733 100.032 85.733Z" fill="#F5E663"/>
<path d="M31.0648 86.7441C27.1662 86.7441 23.9902 82.9914 23.9902 78.3844C23.9902 73.7773 27.1609 70.0247 31.0648 70.0247C34.9688 70.0247 38.1395 73.7773 38.1395 78.3844C38.1395 82.9914 34.9688 86.7441 31.0648 86.7441ZM31.0648 72.0524C28.277 72.0524 26.0123 74.8912 26.0123 78.3844C26.0123 81.8775 28.277 84.7163 31.0648 84.7163C33.8526 84.7163 36.1174 81.8775 36.1174 78.3844C36.1174 74.8912 33.8526 72.0524 31.0648 72.0524Z" fill="#011627"/>
<path d="M100.032 86.7441C96.1336 86.7441 92.9575 82.9914 92.9575 78.3844C92.9575 73.7773 96.1282 70.0247 100.032 70.0247C103.936 70.0247 107.107 73.7773 107.107 78.3844C107.107 82.9914 103.931 86.7441 100.032 86.7441ZM100.032 72.0524C97.2444 72.0524 94.9796 74.8912 94.9796 78.3844C94.9796 81.8775 97.2444 84.7163 100.032 84.7163C102.82 84.7163 105.085 81.8775 105.085 78.3844C105.085 74.8912 102.815 72.0524 100.032 72.0524Z" fill="#011627"/>
<path d="M107.107 62.4222C107.107 64.8663 106.546 67.2293 105.495 69.4625C104.513 71.5443 103.111 73.5126 101.354 75.3294C101.003 79.5742 100.054 86.4415 97.5088 89.0046C97.5088 89.0046 38.145 89.9995 34.1008 89.0046C34.1008 89.0046 30.6282 82.997 30.5958 73.7289C29.9272 72.907 29.3286 72.058 28.8002 71.1874C27.1609 68.4567 26.2658 65.5097 26.2658 62.4276C26.2658 48.574 44.3623 37.3484 66.6864 37.3484C89.0105 37.3484 107.107 48.574 107.107 62.4222Z" fill="#011627"/>
<g opacity="0.2">
<g opacity="0.2">
<g opacity="0.2">
<path opacity="0.2" d="M105.489 69.4625C104.508 71.5443 103.106 73.5125 101.348 75.3294C100.997 79.5742 100.048 86.4415 97.5032 89.0045C97.5032 89.0045 38.1396 89.9995 34.0954 89.0045C34.0954 89.0045 30.6228 82.997 30.5904 73.7288C29.9218 72.9069 29.3232 72.058 28.7948 71.1874C30.6767 69.7436 33.486 68.6568 36.619 71.036C36.619 71.036 33.2973 58.7505 45.4785 52.7214C57.6596 46.6976 65.8613 56.6309 65.8613 56.6309C65.8613 56.6309 74.4674 45.9676 86.5622 52.5591C98.6733 59.1615 93.9658 72.7069 93.9658 72.7069C93.9658 72.7069 98.3983 65.1582 105.489 69.4625Z" fill="#011627"/>
</g>
</g>
</g>
<g opacity="0.6">
<g opacity="0.6">
<g opacity="0.6">
<path opacity="0.6" d="M107.231 62.422C107.231 62.9952 107.198 63.563 107.139 64.1253C105.715 51.0721 88.2068 40.7657 66.8157 40.7657C45.4246 40.7657 27.9105 51.0775 26.4923 64.1253C26.4276 63.563 26.4007 62.9952 26.4007 62.422C26.4007 48.5685 44.4971 37.3429 66.8211 37.3429C89.1451 37.3429 107.231 48.5739 107.231 62.422Z" fill="white"/>
</g>
</g>
</g>
<path d="M52.7742 90.4642C43.0951 90.4642 35.3032 90.3453 33.8581 89.9884C33.5939 89.9235 33.362 89.7505 33.2272 89.5126C33.0816 89.2584 29.706 83.3158 29.5928 74.0855C26.7564 70.5005 25.2628 66.4721 25.2628 62.422C25.2628 55.3601 29.6359 48.7523 37.5788 43.8263C45.3706 38.9922 55.7076 36.3318 66.6917 36.3318C77.6758 36.3318 88.0128 38.9922 95.8046 43.8263C103.747 48.7523 108.121 55.3601 108.121 62.422C108.121 67.148 106.12 71.755 102.329 75.7726C101.892 80.769 100.825 87.1009 98.2257 89.718C98.0424 89.9073 97.789 90.01 97.5247 90.0154C93.6099 90.0857 70.1427 90.4642 52.7742 90.4642ZM34.7586 88.0904C40.2102 88.7717 80.7871 88.2689 97.0502 87.9985C98.6356 86.0681 99.8273 81.4719 100.34 75.2481C100.361 75.0156 100.458 74.7939 100.62 74.6263C104.2 70.9331 106.093 66.7154 106.093 62.4274C106.093 49.1579 88.4172 38.3649 66.6863 38.3649C44.9554 38.3649 27.2795 49.1579 27.2795 62.4274C27.2795 66.1638 28.6599 69.7543 31.3776 73.0906C31.5232 73.269 31.6041 73.4961 31.6041 73.7287C31.6311 81.261 34.0252 86.6196 34.7586 88.0904Z" fill="#011627"/>
<path d="M30.5958 74.7399C30.0404 74.7399 29.5874 74.2911 29.5874 73.7287V73.7233C29.5874 73.1664 30.0404 72.7122 30.5958 72.7122C31.1512 72.7122 31.6041 73.1664 31.6041 73.7233C31.6041 74.2803 31.1512 74.7399 30.5958 74.7399Z" fill="#011627"/>
<path d="M66.3736 105.74C28.5953 105.74 32.2728 80.6555 36.6028 77.3679C38.1073 76.2269 40.0647 75.5943 42.2593 75.3185C41.5583 73.7396 41.1755 71.9876 41.1755 70.1437C41.1755 63.0763 46.8859 57.35 53.9336 57.35C59.5901 57.35 64.3893 61.0486 66.0609 66.1585C67.7271 61.0432 72.5262 57.35 78.1881 57.35C85.2358 57.35 90.9463 63.0763 90.9463 70.1437C90.9463 72.2417 90.4448 74.2208 89.5497 75.9674C91.1458 76.0863 92.5532 76.3675 93.6532 76.8542C99.8975 79.6498 104.147 105.74 66.3736 105.74Z" fill="#F5E663"/>
<g opacity="0.2">
<g opacity="0.2">
<g opacity="0.2">
<path opacity="0.2" d="M66.3736 105.989C37.045 105.989 32.6988 90.8698 34.2464 82.5696C35.6861 90.6049 43.2946 99.9649 66.3736 99.9649C88.1422 99.9649 95.9556 91.297 97.4654 83.4239C99.1586 92.0108 94.0252 105.989 66.3736 105.989Z" fill="#011627"/>
</g>
</g>
</g>
<path d="M66.3736 106.757C42.6907 106.757 35.8641 96.9316 33.9013 91.07C31.7605 84.6894 33.6748 78.3196 35.9881 76.5622C37.266 75.5889 38.8999 74.9076 40.8627 74.5182C40.3936 73.1177 40.1617 71.6524 40.1617 70.1491C40.1617 62.5356 46.3359 56.3442 53.9282 56.3442C59.0724 56.3442 63.6882 59.1777 66.0554 63.6009C68.4226 59.1777 73.0384 56.3442 78.1827 56.3442C85.775 56.3442 91.9491 62.5356 91.9491 70.1491C91.9491 71.847 91.631 73.5449 91.0271 75.1184C92.208 75.2915 93.2217 75.5673 94.0521 75.9349C97.1904 77.3354 99.7464 83.3267 98.3983 89.6966C97.6973 93.0113 95.6482 97.7264 89.8785 101.393C84.2759 104.951 76.3655 106.757 66.3736 106.757ZM53.9282 58.372C47.4521 58.372 42.1838 63.6549 42.1838 70.1491C42.1838 71.8092 42.5181 73.4151 43.1814 74.913C43.3108 75.205 43.2946 75.5456 43.1382 75.8214C42.9819 76.1026 42.7015 76.2864 42.3833 76.3297C40.2102 76.6 38.4685 77.2219 37.2121 78.179C35.7239 79.3091 33.8851 84.6569 35.8209 90.4266C37.6112 95.769 43.9579 104.729 66.379 104.729C75.9826 104.729 83.5318 103.031 88.8054 99.6839C93.982 96.3962 95.81 92.211 96.4301 89.2802C97.6164 83.662 95.3355 78.7251 93.2379 77.7897C92.305 77.3733 91.0378 77.1029 89.4687 76.9894C89.129 76.9623 88.827 76.7731 88.6599 76.4757C88.4927 76.1783 88.4873 75.8214 88.6437 75.5186C89.4957 73.8531 89.927 72.0471 89.927 70.1545C89.927 63.6603 84.6588 58.3774 78.1827 58.3774C73.087 58.3774 68.6006 61.638 67.0153 66.4884C66.8804 66.9047 66.4922 67.1859 66.0554 67.1859C65.6186 67.1859 65.2304 66.9047 65.0956 66.4884C63.5103 61.6326 59.0239 58.372 53.9282 58.372Z" fill="#011627"/>
<path d="M71.2105 91.4106C70.3639 93.0598 68.9727 94.3413 66.6918 94.3413C64.2436 94.3413 62.7715 93.0706 61.8872 91.4376C60.318 88.5231 60.6254 84.4622 60.6254 84.4622H72.4993C72.4993 84.4622 72.7096 88.496 71.2105 91.4106Z" fill="#011627"/>
<path d="M71.2104 91.4107C70.3638 93.0599 68.9726 94.3414 66.6917 94.3414C64.2436 94.3414 62.7715 93.0707 61.8872 91.4377C62.545 89.7398 64.3892 88.5123 66.5515 88.5123C68.7084 88.5177 70.5418 89.7236 71.2104 91.4107Z" fill="#FF3E7A"/>
<path d="M66.6918 95.3578C64.1843 95.3578 62.2215 94.1736 61.0029 91.9242C59.3097 88.7826 59.6116 84.5649 59.6224 84.3865C59.6602 83.8566 60.1023 83.451 60.6308 83.451H72.5047C73.0439 83.451 73.4861 83.8728 73.5131 84.4135C73.5239 84.592 73.718 88.7555 72.1111 91.8755C70.9355 94.152 69.0644 95.3578 66.6918 95.3578ZM61.6176 85.4788C61.6284 86.7711 61.8009 89.1449 62.7823 90.9617C63.6451 92.5568 64.9285 93.3355 66.6972 93.3355C68.3095 93.3355 69.4904 92.5568 70.3154 90.9509C71.2483 89.134 71.4586 86.7819 71.4963 85.4842H61.6176V85.4788Z" fill="#011627"/>
<path d="M84.1143 79.3954C83.203 79.6117 82.4373 79.7902 81.7147 80.0065C80.9975 80.2173 80.3558 80.4715 79.7465 80.7689C79.1425 81.0717 78.5656 81.434 77.9724 81.8828C77.3738 82.3316 76.7807 82.8669 76.0311 83.4455C75.9448 82.5046 76.2091 81.5962 76.6836 80.7743C77.1635 79.9632 77.9077 79.2603 78.7866 78.8277C79.6656 78.3897 80.6578 78.2167 81.5907 78.3086C82.0598 78.3573 82.5128 78.4654 82.9442 78.6384C83.3702 78.8277 83.78 79.0548 84.1143 79.3954Z" fill="#011627"/>
<path d="M48.4983 79.3955C48.8326 79.0548 49.2478 78.8277 49.6738 78.6493C50.0997 78.4763 50.5581 78.3681 51.0272 78.3195C51.9601 78.2275 52.9522 78.4006 53.8312 78.8385C54.7101 79.2711 55.4542 79.9687 55.9341 80.7852C56.4086 81.6017 56.6729 82.5101 56.5866 83.4564C55.8425 82.8778 55.2493 82.3425 54.6454 81.8937C54.0522 81.4448 53.4753 81.0826 52.8713 80.7798C52.262 80.4769 51.6204 80.2282 50.9032 80.0173C50.1752 79.7902 49.4042 79.6118 48.4983 79.3955Z" fill="#011627"/>
<path d="M73.6476 72.3335C74.4564 70.9547 80.593 66.9642 82.7931 68.1321C84.9932 69.3001 84.7883 72.3281 83.9633 73.2906C83.1382 74.2477 75.2869 78.0328 74.0628 77.438C72.8387 76.8486 72.7902 73.7989 73.6476 72.3335Z" fill="#011627"/>
<g opacity="0.6">
<g opacity="0.6">
<g opacity="0.6">
<path opacity="0.6" d="M84.3783 72.1444C84.1465 71.3549 83.6558 70.6195 82.793 70.1599C80.593 68.9973 74.4566 72.9771 73.6477 74.3614C73.432 74.7237 73.2757 75.1887 73.1786 75.6862C72.9198 74.5128 73.0977 72.9339 73.6477 71.9984C74.4566 70.6195 80.593 66.629 82.793 67.7969C84.5455 68.7216 84.772 70.8358 84.3783 72.1444Z" fill="white"/>
</g>
</g>
</g>
<path d="M58.447 72.3335C57.6381 70.9547 51.5017 66.9642 49.3016 68.1321C47.1016 69.3001 47.3065 72.3281 48.1315 73.2906C48.9565 74.2477 56.8077 78.0328 58.0318 77.438C59.2612 76.8486 59.3043 73.7989 58.447 72.3335Z" fill="#011627"/>
<g opacity="0.6">
<g opacity="0.6">
<g opacity="0.6">
<path opacity="0.6" d="M47.7163 72.4742C47.9482 71.6848 48.4388 70.9494 49.3016 70.4898C51.5017 69.3272 57.6381 73.307 58.4469 74.6912C58.6626 75.0535 58.819 75.5185 58.916 76.016C59.1749 74.8426 58.9969 73.2637 58.4469 72.3282C57.6381 70.9494 51.5017 66.9588 49.3016 68.1268C47.5491 69.0568 47.3226 71.1711 47.7163 72.4742Z" fill="white"/>
</g>
</g>
</g>
<path d="M74.3919 78.5143C73.9659 78.5143 73.7664 78.4169 73.6262 78.352C73.1948 78.1466 72.6178 77.6707 72.2889 76.6001C71.836 75.1184 72.0462 73.0582 72.7796 71.82C73.7394 70.1869 80.3396 65.6826 83.2676 67.2345C84.4269 67.8456 85.2034 68.9433 85.4622 70.3113C85.7211 71.6794 85.4245 73.1394 84.7289 73.9505C83.8769 74.94 79.7518 76.7947 79.5739 76.8704C76.5812 78.206 75.1414 78.5143 74.3919 78.5143ZM74.462 76.4919C74.4728 76.4919 74.4782 76.4919 74.489 76.4919C75.9772 76.4919 82.4426 73.4097 83.2083 72.6202C83.424 72.3715 83.6396 71.555 83.4779 70.6898C83.3754 70.1599 83.095 69.4353 82.3239 69.0298C80.8411 68.2457 75.2385 71.6199 74.5213 72.8474C74.0791 73.599 73.9389 75.0806 74.2247 76.0107C74.3056 76.2864 74.4027 76.4324 74.462 76.4919Z" fill="#011627"/>
<path d="M57.7082 78.5142C56.9586 78.5142 55.5135 78.2059 52.5208 76.8703C52.3428 76.7946 48.2178 74.9399 47.3658 73.9504C46.6702 73.1393 46.3736 71.6794 46.6324 70.3113C46.8913 68.9379 47.6731 67.8456 48.8271 67.2346C51.7551 65.6827 58.3552 70.1815 59.3151 71.8199C60.043 73.0636 60.2533 75.1184 59.8057 76.6C59.4822 77.6706 58.8999 78.1411 58.4685 78.3519C58.3337 78.4168 58.1288 78.5142 57.7082 78.5142ZM50.3477 68.9108C50.1212 68.9108 49.9271 68.9487 49.7761 69.0298C49.005 69.4407 48.7192 70.1599 48.6222 70.6898C48.4604 71.555 48.6815 72.3715 48.9026 72.631C49.6629 73.4151 56.1282 76.4972 57.6165 76.4972C57.6273 76.4972 57.6327 76.4972 57.6434 76.4972C57.7028 76.4378 57.7944 76.2918 57.8807 76.016C58.1665 75.0805 58.0263 73.6043 57.5841 72.8527C56.9263 71.7442 52.3482 68.9108 50.3477 68.9108Z" fill="#011627"/>
<g opacity="0.2">
<g opacity="0.2">
<g opacity="0.2">
<path opacity="0.2" d="M114.899 122.205C114.899 122.205 114.155 120.199 112.429 118.312C110.736 112.569 107.101 109.79 107.101 109.79C115.638 107.741 115.357 97.7317 114.516 92.2001C116.01 93.7195 117.147 95.439 117.681 97.3748C120.458 107.508 114.651 113.083 114.651 113.083C114.651 113.083 120.712 118.663 114.899 122.205Z" fill="#011627"/>
</g>
</g>
</g>
<path d="M66.8103 20.3748C73.734 20.3748 79.6116 24.5708 81.6122 30.3404L87.1123 30.3567L93.9659 30.4053C94.0198 30.4053 94.0684 30.4486 94.0684 30.5081C94.0684 30.5567 94.0306 30.6 93.9821 30.6054H93.9659C89.9918 31.2272 86.0123 31.5949 82.0382 31.8437C82.2377 32.7629 82.3455 33.7092 82.3455 34.6825C82.3455 35.8721 82.1838 37.0293 81.8872 38.1324C87.0314 39.4031 91.7551 41.3173 95.7993 43.8263C103.742 48.7523 108.115 55.3601 108.115 62.422C108.115 65.8773 107.042 69.2731 104.982 72.4147C106.293 73.9342 107.107 76.043 107.107 78.379C107.107 80.9691 106.104 83.2888 104.535 84.8245C110.299 87.2091 117.023 91.1835 118.652 97.0991C121.008 105.653 117.579 111.131 116.037 113.051C117.018 114.165 118.663 116.425 118.425 118.847C118.28 120.372 117.444 121.675 115.95 122.73C116.991 126.228 118.091 134.123 110.536 141.969C112.391 143.099 115.503 145.592 114.635 149.285C114.554 149.62 114.311 149.896 113.987 150.01C113.756 150.091 109.436 151.583 102.712 151.583C102.712 151.583 102.712 151.583 102.707 151.583C100.749 151.583 98.5817 151.459 96.2576 151.129C93.8742 150.794 92.0732 148.804 91.9762 146.392C91.8845 144.099 91.8521 140.671 92.1379 136.892C84.5725 140.433 75.6645 142.342 66.4275 142.342C57.1743 142.342 48.2717 140.433 40.7063 136.886C40.9382 139.985 40.9543 142.904 40.8896 145.262C40.8087 148.344 38.4307 150.934 35.3571 151.286C33.4914 151.497 31.7389 151.583 30.1266 151.583C23.397 151.583 19.0724 150.085 18.8513 150.01C18.5278 149.896 18.2852 149.62 18.2043 149.285C17.3361 145.592 20.4475 143.094 22.3024 141.969C15.0282 134.415 15.7777 126.812 16.7753 123.135C16.7322 123.114 16.6836 123.092 16.6405 123.07C14.8287 121.962 13.8257 120.545 13.6586 118.864C13.4213 116.441 15.0606 114.175 16.042 113.062C14.4998 111.142 11.0649 105.67 13.4105 97.1153C14.9743 91.4214 21.2509 87.5228 26.8589 85.1057C25.1172 83.5809 23.9848 81.1367 23.9848 78.3844C23.9848 75.2644 25.4407 72.5391 27.5868 71.1062C26.05 68.3322 25.2466 65.3852 25.2466 62.4274C25.2466 55.3655 29.6197 48.7578 37.5626 43.8317C41.6661 41.2848 46.476 39.349 51.7119 38.0837C51.4262 36.9969 51.2698 35.8613 51.2698 34.6879C51.2698 33.7254 51.3776 32.7846 51.5717 31.8707C47.4305 31.6166 43.2838 31.2543 39.1425 30.6054H39.1263C39.0724 30.5946 39.0347 30.5459 39.0401 30.4919C39.0455 30.4432 39.0886 30.4053 39.1371 30.4053L45.9907 30.3567L51.9977 30.3404C54.0145 24.5654 59.892 20.3748 66.8103 20.3748ZM66.8103 18.9689C63.1706 18.9689 59.6979 20.0287 56.7753 22.0348C54.2194 23.7868 52.2134 26.2093 51.0487 28.94L45.9961 28.9508L39.1371 28.9994C38.3984 29.0048 37.7729 29.5402 37.6596 30.2756C37.6003 30.6703 37.692 31.0704 37.9346 31.3949C38.1719 31.7193 38.5224 31.9356 38.9214 31.9951H38.9268C42.2269 32.5088 45.7589 32.8873 49.9487 33.1739C49.8947 33.6768 49.8678 34.1796 49.8678 34.6825C49.8678 35.472 49.9325 36.2615 50.0619 37.0455C45.1334 38.3595 40.6847 40.2358 36.8292 42.6313C28.4604 47.8277 23.85 54.8518 23.85 62.422C23.85 65.2447 24.5079 68.0348 25.8128 70.7169C23.8015 72.5553 22.5882 75.3834 22.5882 78.379C22.5882 80.6987 23.2838 82.8833 24.5348 84.6136C21.8818 85.8844 19.6009 87.2794 17.7459 88.7773C14.764 91.1781 12.8551 93.8602 12.0678 96.7314C9.85701 104.799 12.4615 110.352 14.2787 113.013C13.2164 114.446 12.0409 116.609 12.2728 118.988C12.4022 120.324 13.0277 122.184 15.1846 123.768C14.3056 127.856 14.1978 134.739 20.1886 141.715C17.3792 143.91 16.1714 146.722 16.8454 149.599C17.0341 150.404 17.6111 151.053 18.393 151.329C18.5817 151.399 23.149 152.984 30.1374 152.984C31.9222 152.984 33.7341 152.881 35.5243 152.675C39.2881 152.248 42.2053 149.074 42.3024 145.289C42.3563 143.18 42.3401 141.104 42.2485 139.092C49.555 142.137 57.8645 143.737 66.4329 143.737C74.9905 143.737 83.2946 142.137 90.6011 139.098C90.4663 142.045 90.5095 144.635 90.5796 146.441C90.6982 149.534 93.0061 152.086 96.0689 152.519C98.2743 152.827 100.512 152.984 102.712 152.984C109.577 152.984 113.977 151.497 114.457 151.329C115.238 151.053 115.815 150.41 116.004 149.599C116.678 146.722 115.47 143.91 112.661 141.715C115.497 138.406 117.244 134.788 117.854 130.933C118.344 127.84 118.01 125.163 117.546 123.249C118.9 122.059 119.666 120.621 119.822 118.972C120.054 116.592 118.873 114.43 117.811 112.997C119.628 110.336 122.221 104.772 120.005 96.7098C118.377 90.7942 112.251 86.7603 106.794 84.2622C107.9 82.5805 108.514 80.5203 108.514 78.3682C108.514 76.1458 107.873 74.0369 106.697 72.3228C108.574 69.165 109.528 65.834 109.528 62.4112C109.528 54.841 104.918 47.8115 96.5488 42.6205C92.758 40.2683 88.3903 38.4136 83.5588 37.0996C83.6936 36.2939 83.7637 35.4828 83.7637 34.6717C83.7637 34.158 83.7367 33.6443 83.6828 33.136C87.6461 32.8548 91.0163 32.4872 94.1978 31.9843L94.214 31.9789C94.9419 31.8653 95.4757 31.2435 95.4811 30.5027C95.4865 29.6699 94.8179 28.9886 93.9875 28.9832L87.1339 28.9345L82.5828 28.9237C81.4181 26.193 79.4121 23.7706 76.8562 22.0186C73.9228 20.0287 70.4501 18.9689 66.8103 18.9689Z" fill="white"/>
</svg>
