<svg width="1440" height="149" viewBox="0 0 1440 149" fill="none" xmlns="http://www.w3.org/2000/svg">
<path d="M206.863 15.606C226.513 15.606 243.754 25.6384 253.95 40.687C257.472 39.3866 260.994 38.2718 264.702 37.5287C252.838 17.8354 231.333 4.64465 206.678 4.64465C182.022 4.64465 160.517 17.8354 148.653 37.5287C152.361 38.2718 156.068 39.3866 159.405 40.687C169.972 25.4526 187.212 15.606 206.863 15.606Z" fill="#FFF27C"/>
<path d="M206.863 34.1846C219.469 34.1846 230.406 40.3155 237.451 49.6048C239.676 48.1185 241.9 46.6322 244.31 45.3317C235.968 33.813 222.25 26.1958 206.863 26.1958C191.476 26.1958 177.943 33.813 169.416 45.3317C171.826 46.6322 174.05 48.1185 176.275 49.6048C183.319 40.3155 194.442 34.1846 206.863 34.1846Z" fill="#FFF27C"/>
<path d="M190.364 62.7955C193.701 57.0361 199.818 53.3204 206.863 53.3204C213.907 53.3204 220.025 57.2219 223.362 62.7955C225.03 60.7519 226.884 58.7082 228.923 56.6646C224.103 49.7905 215.947 45.1459 206.863 45.1459C197.779 45.1459 189.622 49.6047 184.802 56.6646C186.842 58.7082 188.696 60.7519 190.364 62.7955Z" fill="#FFF27C"/>
<path d="M206.863 60.9377C201.301 60.9377 196.667 64.8392 195.555 70.227C196.111 71.1559 196.667 72.0848 197.223 73.1995C198.521 73.0137 199.633 72.828 200.931 72.828V72.6422C200.931 69.4838 203.526 66.697 206.863 66.697C210.014 66.697 212.61 69.298 212.795 72.4564C212.795 72.4564 212.795 72.4564 212.795 72.6422V72.828C214.093 73.0137 215.205 73.0137 216.503 73.1995C216.688 73.0137 217.8 70.9701 218.357 70.227C217.059 64.8392 212.424 60.9377 206.863 60.9377Z" fill="#FFF27C"/>
<path d="M206.863 90.106C226.513 90.106 243.754 100.138 253.95 115.187C257.472 113.887 260.994 112.772 264.702 112.029C252.838 92.3354 231.333 79.1447 206.678 79.1447C182.022 79.1447 160.517 92.3354 148.653 112.029C152.361 112.772 156.068 113.887 159.405 115.187C169.972 99.9526 187.212 90.106 206.863 90.106Z" fill="#FFF27C"/>
<path d="M206.863 108.685C219.469 108.685 230.406 114.816 237.451 124.105C239.676 122.619 241.9 121.132 244.31 119.646C235.968 108.127 222.25 100.51 206.863 100.51C191.476 100.51 177.943 108.127 169.416 119.646C171.826 120.946 174.05 122.433 176.275 124.105C183.319 114.816 194.442 108.685 206.863 108.685Z" fill="#FFF27C"/>
<path d="M190.364 137.481C193.701 131.722 199.818 128.006 206.863 128.006C213.907 128.006 220.025 131.908 223.362 137.481C225.03 135.438 226.884 133.394 228.923 131.35C224.103 124.476 215.947 119.832 206.863 119.832C197.779 119.832 189.622 124.291 184.802 131.35C186.842 133.208 188.696 135.252 190.364 137.481Z" fill="#FFF27C"/>
<path d="M206.863 135.438C201.301 135.438 196.667 139.339 195.555 144.727C196.111 145.656 196.667 146.585 197.223 147.7C198.521 147.514 199.633 147.328 200.931 147.328V147.142C200.931 143.984 203.526 141.197 206.863 141.197C210.014 141.197 212.61 143.798 212.795 146.956C212.795 146.956 212.795 146.956 212.795 147.142V147.328C214.093 147.514 215.205 147.514 216.503 147.7C216.688 147.514 217.8 145.47 218.357 144.727C217.059 139.339 212.424 135.438 206.863 135.438Z" fill="#FFF27C"/>
<path d="M263.59 25.4526C266.927 19.6933 273.044 15.9775 280.089 15.9775C287.133 15.9775 293.251 19.879 296.588 25.4526C298.256 23.409 300.11 21.3653 302.149 19.3217C297.329 12.4476 289.173 7.80298 280.089 7.80298C271.005 7.80298 262.848 12.2618 258.028 19.3217C260.068 21.1795 261.921 23.2232 263.59 25.4526Z" fill="#FFF27C"/>
<path d="M280.274 23.5948C274.713 23.5948 270.078 27.4963 268.966 32.8841C269.522 33.813 270.078 34.7419 270.634 35.8566C271.932 35.6708 273.044 35.4851 274.342 35.4851V35.2993C274.342 32.1409 276.937 29.3541 280.274 29.3541C283.426 29.3541 286.021 31.9551 286.206 35.1135C286.206 35.1135 286.206 35.1135 286.206 35.2993V35.4851C287.504 35.6708 288.616 35.6708 289.914 35.8566C290.099 35.6708 291.212 33.6272 291.768 32.8841C290.47 27.4963 285.836 23.5948 280.274 23.5948Z" fill="#FFF27C"/>
<path d="M280.274 52.5773C299.925 52.5773 317.165 62.6097 327.361 77.6584C330.883 76.3579 334.406 75.2431 338.113 74.5C326.249 54.8067 304.745 41.616 280.089 41.616C255.433 41.616 233.929 54.8067 222.064 74.5C225.772 75.2431 229.48 76.3579 232.816 77.6584C243.198 62.6097 260.624 52.5773 280.274 52.5773Z" fill="#FFF27C"/>
<path d="M280.274 71.3417C292.88 71.3417 303.818 77.4726 310.862 86.7619C313.087 85.2756 315.311 83.7893 317.721 82.4888C309.379 70.9701 295.661 63.3529 280.274 63.3529C264.887 63.3529 251.355 70.9701 242.827 82.4888C245.237 83.7893 247.462 85.2756 249.686 86.9477C256.545 77.2868 267.668 71.3417 280.274 71.3417Z" fill="#FFF27C"/>
<path d="M263.59 99.9527C266.927 94.1933 273.044 90.4776 280.089 90.4776C287.133 90.4776 293.251 94.3791 296.588 99.9527C298.256 97.909 300.11 95.8654 302.149 93.8217C297.329 86.9477 289.173 82.303 280.089 82.303C271.005 82.303 262.848 86.7619 258.028 93.8217C260.068 95.6796 261.921 97.7232 263.59 99.9527Z" fill="#FFF27C"/>
<path d="M280.274 98.0947C274.713 98.0947 270.078 101.996 268.966 107.384C269.522 108.313 270.078 109.242 270.634 110.357C271.932 110.171 273.044 109.985 274.342 109.985V109.799C274.342 106.641 276.937 103.854 280.274 103.854C283.426 103.854 286.021 106.455 286.206 109.613C286.206 109.613 286.206 109.613 286.206 109.799V109.985C287.504 110.171 288.616 110.171 289.914 110.357C290.099 110.171 291.212 108.127 291.768 107.384C290.47 101.996 285.836 98.0947 280.274 98.0947Z" fill="#FFF27C"/>
<path d="M233.002 3.15835C233.743 2.04364 234.485 0.928928 235.412 0H222.25C225.957 0.743142 229.48 1.85786 233.002 3.15835Z" fill="#FFF27C"/>
<path d="M180.724 3.15835C179.983 2.04364 179.241 0.928928 178.314 0H191.476C187.769 0.743142 184.246 1.85786 180.724 3.15835Z" fill="#FFF27C"/>
<path d="M310.677 12.2618C312.901 10.7756 315.126 9.28928 317.536 7.80299C315.497 5.01621 313.087 2.22943 310.306 0H295.29C301.408 2.601 306.784 6.87407 310.677 12.2618Z" fill="#FFF27C"/>
<path d="M242.827 7.80299C245.237 9.10349 247.462 10.5898 249.686 12.2618C253.579 6.87407 258.955 2.78678 265.073 0H250.057C247.276 2.41521 244.866 5.01621 242.827 7.80299Z" fill="#FFF27C"/>
<path d="M280.274 116.116C255.618 116.116 234.114 129.307 222.25 149H235.412C245.793 135.623 261.921 127.077 280.274 127.077C298.442 127.077 314.755 135.623 325.137 149H338.299C326.249 129.307 304.745 116.116 280.274 116.116Z" fill="#FFF27C"/>
<path opacity="0.58" d="M280.274 116.116C255.618 116.116 234.114 129.307 222.25 149H235.412C245.793 135.623 261.921 127.077 280.274 127.077C298.442 127.077 314.755 135.623 325.137 149H338.299C326.249 129.307 304.745 116.116 280.274 116.116Z" fill="#FFF27C"/>
<path d="M250.057 149H265.073C269.707 146.956 274.898 145.842 280.274 145.842C285.65 145.842 290.841 146.956 295.475 149H310.491C302.335 141.94 291.768 137.667 280.274 137.667C268.595 137.667 258.028 141.94 250.057 149Z" fill="#FFF27C"/>
<path opacity="0.58" d="M250.057 149H265.073C269.707 146.956 274.898 145.842 280.274 145.842C285.65 145.842 290.841 146.956 295.475 149H310.491C302.335 141.94 291.768 137.667 280.274 137.667C268.595 137.667 258.028 141.94 250.057 149Z" fill="#FFF27C"/>
<path d="M60.2252 15.606C79.8757 15.606 97.1162 25.6384 107.312 40.687C110.834 39.3866 114.357 38.2718 118.064 37.5287C106.385 17.8354 84.881 4.64465 60.2252 4.64465C35.5694 4.64465 14.0651 17.8354 2.20068 37.5287C5.90832 38.2718 9.61596 39.3866 12.9528 40.687C23.3342 25.4526 40.5747 15.606 60.2252 15.606Z" fill="#FFF27C"/>
<path d="M60.2258 34.1846C72.8318 34.1846 83.7693 40.3155 90.8138 49.6048C93.0384 48.1185 95.263 46.6322 97.673 45.3317C89.3308 33.813 75.6125 26.1958 60.2258 26.1958C44.8391 26.1958 31.3063 33.813 22.7787 45.3317C25.1887 46.6322 27.4132 48.1185 29.6378 49.6048C36.6823 40.3155 47.8052 34.1846 60.2258 34.1846Z" fill="#FFF27C"/>
<path d="M43.7269 62.7955C47.0637 57.0361 53.1813 53.3204 60.2259 53.3204C67.2704 53.3204 73.388 57.2219 76.7248 62.7955C78.3933 60.7519 80.2471 58.7082 82.2863 56.6646C77.4664 49.7905 69.3096 45.1459 60.2259 45.1459C51.1421 45.1459 42.9853 49.6047 38.1654 56.6646C40.2046 58.7082 42.0584 60.7519 43.7269 62.7955Z" fill="#FFF27C"/>
<path d="M60.4112 60.9377C54.8497 60.9377 50.2152 64.8392 49.1029 70.227C49.6591 71.1559 50.2152 72.0848 50.7713 73.1995C52.069 73.0137 53.1813 72.828 54.479 72.828V72.6422C54.479 69.4838 57.0743 66.697 60.4112 66.697C63.5627 66.697 66.158 69.298 66.3434 72.4564C66.3434 72.4564 66.3434 72.4564 66.3434 72.6422V72.828C67.6411 73.0137 68.7534 73.0137 70.0511 73.1995C70.2364 73.0137 71.3487 70.9701 71.9049 70.227C70.4218 64.8392 65.7873 60.9377 60.4112 60.9377Z" fill="#FFF27C"/>
<path d="M60.2258 90.106C79.8763 90.106 97.1169 100.138 107.313 115.187C110.835 113.887 114.357 112.772 118.065 112.029C106.201 92.3354 84.6963 79.1447 60.0405 79.1447C35.3847 79.1447 13.8804 92.3354 2.01593 112.029C5.72357 112.772 9.4312 113.887 12.7681 115.187C23.3348 99.9526 40.5754 90.106 60.2258 90.106Z" fill="#FFF27C"/>
<path d="M60.2258 108.685C72.8318 108.685 83.7693 114.816 90.8139 124.105C93.0384 122.619 95.263 121.132 97.673 119.646C89.3308 108.127 75.6125 100.51 60.2258 100.51C44.8391 100.51 31.3063 108.127 22.7787 119.646C25.1887 120.946 27.4132 122.433 29.6378 124.105C36.6823 114.816 47.8052 108.685 60.2258 108.685Z" fill="#FFF27C"/>
<path d="M43.7269 137.481C47.0637 131.722 53.1813 128.006 60.2259 128.006C67.2704 128.006 73.388 131.908 76.7249 137.481C78.3933 135.438 80.2471 133.394 82.2863 131.35C77.4664 124.476 69.3096 119.832 60.2259 119.832C51.1421 119.832 42.9853 124.291 38.1654 131.35C40.2046 133.208 42.0584 135.252 43.7269 137.481Z" fill="#FFF27C"/>
<path d="M60.4112 135.438C54.8497 135.438 50.2152 139.339 49.1029 144.727C49.6591 145.656 50.2152 146.585 50.7713 147.7C52.069 147.514 53.1813 147.328 54.479 147.328V147.142C54.479 143.984 57.0743 141.197 60.4112 141.197C63.5627 141.197 66.158 143.798 66.3434 146.956C66.3434 146.956 66.3434 146.956 66.3434 147.142V147.328C67.6411 147.514 68.7534 147.514 70.0511 147.7C70.2364 147.514 71.3487 145.47 71.9049 144.727C70.4218 139.339 65.7873 135.438 60.4112 135.438Z" fill="#FFF27C"/>
<path d="M117.138 25.4526C120.475 19.6933 126.593 15.9775 133.637 15.9775C140.682 15.9775 146.799 19.879 150.136 25.4526C151.805 23.409 153.658 21.3653 155.698 19.3217C150.878 12.4476 142.721 7.80298 133.637 7.80298C124.553 7.80298 116.397 12.2618 111.577 19.3217C113.43 21.1795 115.284 23.2232 117.138 25.4526Z" fill="#FFF27C"/>
<path d="M133.637 23.5948C128.076 23.5948 123.441 27.4963 122.329 32.8841C122.885 33.813 123.441 34.7419 123.997 35.8566C125.295 35.6708 126.407 35.4851 127.705 35.4851V35.2993C127.705 32.1409 130.3 29.3541 133.637 29.3541C136.789 29.3541 139.384 31.9551 139.569 35.1135C139.569 35.1135 139.569 35.1135 139.569 35.2993V35.4851C140.867 35.6708 141.979 35.6708 143.277 35.8566C143.462 35.6708 144.575 33.6272 145.131 32.8841C143.833 27.4963 139.199 23.5948 133.637 23.5948Z" fill="#FFF27C"/>
<path d="M133.637 52.5773C153.288 52.5773 170.528 62.6097 180.724 77.6584C184.246 76.3579 187.769 75.2431 191.476 74.5C179.612 54.8067 158.107 41.616 133.452 41.616C108.796 41.616 87.2916 54.8067 75.4272 74.5C79.1348 75.2431 82.8425 76.3579 86.1793 77.6584C96.5607 62.6097 113.987 52.5773 133.637 52.5773Z" fill="#FFF27C"/>
<path d="M133.637 71.3417C146.243 71.3417 157.181 77.4726 164.225 86.7619C166.45 85.2756 168.674 83.7893 171.084 82.4888C162.557 70.7843 149.024 63.1671 133.637 63.1671C118.25 63.1671 104.718 70.7843 96.1899 82.303C98.5999 83.6035 100.824 85.0898 103.049 86.7619C109.908 77.2868 121.031 71.3417 133.637 71.3417Z" fill="#FFF27C"/>
<path d="M117.138 99.9527C120.475 94.1933 126.593 90.4776 133.637 90.4776C140.682 90.4776 146.799 94.3791 150.136 99.9527C151.805 97.909 153.658 95.8654 155.698 93.8217C150.878 86.9477 142.721 82.303 133.637 82.303C124.553 82.303 116.397 86.7619 111.577 93.8217C113.43 95.6796 115.284 97.7232 117.138 99.9527Z" fill="#FFF27C"/>
<path d="M133.637 98.0947C128.076 98.0947 123.441 101.996 122.329 107.384C122.885 108.313 123.441 109.242 123.997 110.357C125.295 110.171 126.407 109.985 127.705 109.985V109.799C127.705 106.641 130.3 103.854 133.637 103.854C136.789 103.854 139.384 106.455 139.569 109.613C139.569 109.613 139.569 109.613 139.569 109.799V109.985C140.867 110.171 141.979 110.171 143.277 110.357C143.462 110.171 144.575 108.127 145.131 107.384C143.833 101.996 139.199 98.0947 133.637 98.0947Z" fill="#FFF27C"/>
<path d="M86.3647 3.15835C87.1062 2.04364 88.0331 1.11471 88.7747 0H75.6125C79.3202 0.743142 83.0278 1.85786 86.3647 3.15835Z" fill="#FFF27C"/>
<path d="M34.0869 3.15835C33.3454 2.04364 32.6039 1.11471 31.8624 0H45.0245C41.3168 0.743142 37.6092 1.85786 34.0869 3.15835Z" fill="#FFF27C"/>
<path d="M164.225 12.2618C166.45 10.7756 168.674 9.28928 171.084 7.80299C169.045 5.01621 166.635 2.22943 163.854 0H148.838C154.956 2.601 160.147 6.87407 164.225 12.2618Z" fill="#FFF27C"/>
<path d="M96.1899 7.80299C98.5998 9.10349 100.824 10.5898 103.049 12.2618C106.942 6.87407 112.318 2.78678 118.436 0H103.42C100.639 2.41521 98.2291 5.01621 96.1899 7.80299Z" fill="#FFF27C"/>
<path d="M24.8171 7.80299C22.4072 9.10349 20.1826 10.5898 17.958 12.2618C14.065 6.87407 8.68889 2.78678 2.57129 0H17.5872C20.368 2.41521 22.7779 5.01621 24.8171 7.80299Z" fill="#FFF27C"/>
<path d="M133.637 116.116C108.981 116.116 87.477 129.307 75.6125 149H88.7747C99.1561 135.623 115.284 127.077 133.637 127.077C151.805 127.077 168.118 135.623 178.5 149H191.662C179.797 129.307 158.107 116.116 133.637 116.116Z" fill="#FFF27C"/>
<path opacity="0.58" d="M133.637 116.116C108.981 116.116 87.477 129.307 75.6125 149H88.7747C99.1561 135.623 115.284 127.077 133.637 127.077C151.805 127.077 168.118 135.623 178.5 149H191.662C179.797 129.307 158.107 116.116 133.637 116.116Z" fill="#FFF27C"/>
<path d="M103.42 149H118.436C123.07 146.956 128.261 145.842 133.637 145.842C139.013 145.842 144.204 146.956 148.838 149H163.854C155.698 141.94 145.131 137.667 133.637 137.667C121.958 137.667 111.391 141.94 103.42 149Z" fill="#FFF27C"/>
<path opacity="0.58" d="M103.42 149H118.436C123.07 146.956 128.261 145.842 133.637 145.842C139.013 145.842 144.204 146.956 148.838 149H163.854C155.698 141.94 145.131 137.667 133.637 137.667C121.958 137.667 111.391 141.94 103.42 149Z" fill="#FFF27C"/>
<path d="M500.137 15.606C519.788 15.606 537.028 25.6384 547.224 40.687C550.746 39.3866 554.269 38.2718 557.976 37.5287C546.112 17.8354 524.608 4.64465 499.952 4.64465C475.296 4.64465 453.792 17.8354 441.927 37.5287C445.635 38.2718 449.342 39.3866 452.679 40.687C463.061 25.4526 480.487 15.606 500.137 15.606Z" fill="#FFF27C"/>
<path d="M500.137 34.1846C512.743 34.1846 523.681 40.3155 530.725 49.6048C532.95 48.1185 535.174 46.6322 537.584 45.3317C529.242 33.813 515.524 26.1958 500.137 26.1958C484.75 26.1958 471.218 33.813 462.69 45.3317C465.1 46.6322 467.324 48.1185 469.549 49.6048C476.408 40.3155 487.531 34.1846 500.137 34.1846Z" fill="#FFF27C"/>
<path d="M483.638 62.7955C486.975 57.0361 493.093 53.3204 500.137 53.3204C507.182 53.3204 513.299 57.2219 516.636 62.7955C518.304 60.7519 520.158 58.7082 522.198 56.6646C517.378 49.7905 509.221 45.1459 500.137 45.1459C491.053 45.1459 482.897 49.6047 478.077 56.6646C479.93 58.7082 481.784 60.7519 483.638 62.7955Z" fill="#FFF27C"/>
<path d="M500.137 60.9377C494.576 60.9377 489.941 64.8392 488.829 70.227C489.385 71.1559 489.941 72.0848 490.497 73.1995C491.795 73.0137 492.907 72.828 494.205 72.828V72.6422C494.205 69.4838 496.8 66.697 500.137 66.697C503.289 66.697 505.884 69.298 506.069 72.4564C506.069 72.4564 506.069 72.4564 506.069 72.6422V72.828C507.367 73.0137 508.479 73.0137 509.777 73.1995C509.962 73.0137 511.075 70.9701 511.631 70.227C510.333 64.8392 505.698 60.9377 500.137 60.9377Z" fill="#FFF27C"/>
<path d="M500.137 90.106C519.788 90.106 537.028 100.138 547.224 115.187C550.746 113.887 554.269 112.772 557.976 112.029C546.112 92.3354 524.608 79.1447 499.952 79.1447C475.296 79.1447 453.792 92.3354 441.927 112.029C445.635 112.772 449.342 113.887 452.679 115.187C463.061 99.9526 480.487 90.106 500.137 90.106Z" fill="#FFF27C"/>
<path d="M500.137 108.685C512.743 108.685 523.681 114.816 530.725 124.105C532.95 122.619 535.174 121.132 537.584 119.646C529.242 108.127 515.524 100.51 500.137 100.51C484.75 100.51 471.218 108.127 462.69 119.646C465.1 120.946 467.324 122.433 469.549 124.105C476.408 114.816 487.531 108.685 500.137 108.685Z" fill="#FFF27C"/>
<path d="M483.638 137.481C486.975 131.722 493.093 128.006 500.137 128.006C507.182 128.006 513.299 131.908 516.636 137.481C518.304 135.438 520.158 133.394 522.198 131.35C517.378 124.476 509.221 119.832 500.137 119.832C491.053 119.832 482.897 124.291 478.077 131.35C479.93 133.208 481.784 135.252 483.638 137.481Z" fill="#FFF27C"/>
<path d="M500.137 135.438C494.576 135.438 489.941 139.339 488.829 144.727C489.385 145.656 489.941 146.585 490.497 147.7C491.795 147.514 492.907 147.328 494.205 147.328V147.142C494.205 143.984 496.8 141.197 500.137 141.197C503.289 141.197 505.884 143.798 506.069 146.956C506.069 146.956 506.069 146.956 506.069 147.142V147.328C507.367 147.514 508.479 147.514 509.777 147.7C509.962 147.514 511.075 145.47 511.631 144.727C510.333 139.339 505.698 135.438 500.137 135.438Z" fill="#FFF27C"/>
<path d="M556.864 25.4526C560.201 19.6933 566.318 15.9775 573.363 15.9775C580.407 15.9775 586.525 19.879 589.862 25.4526C591.53 23.409 593.384 21.3653 595.423 19.3217C590.603 12.4476 582.447 7.80298 573.363 7.80298C564.279 7.80298 556.122 12.2618 551.302 19.3217C553.342 21.1795 555.196 23.2232 556.864 25.4526Z" fill="#FFF27C"/>
<path d="M573.363 23.5948C567.801 23.5948 563.167 27.4963 562.055 32.8841C562.611 33.813 563.167 34.7419 563.723 35.8566C565.021 35.6708 566.133 35.4851 567.431 35.4851V35.2993C567.431 32.1409 570.026 29.3541 573.363 29.3541C576.514 29.3541 579.11 31.9551 579.295 35.1135C579.295 35.1135 579.295 35.1135 579.295 35.2993V35.4851C580.593 35.6708 581.705 35.6708 583.003 35.8566C583.188 35.6708 584.3 33.6272 584.857 32.8841C583.559 27.4963 578.924 23.5948 573.363 23.5948Z" fill="#FFF27C"/>
<path d="M573.363 52.5773C593.013 52.5773 610.254 62.6097 620.45 77.6584C623.972 76.3579 627.494 75.2431 631.202 74.5C619.338 54.8067 597.833 41.616 573.178 41.616C548.522 41.616 527.017 54.8067 515.153 74.5C518.861 75.2431 522.568 76.3579 525.905 77.6584C536.472 62.6097 553.712 52.5773 573.363 52.5773Z" fill="#FFF27C"/>
<path d="M573.363 71.3417C585.969 71.3417 596.906 77.4726 603.951 86.7619C606.176 85.2756 608.4 83.7893 610.81 82.4888C602.468 70.9701 588.75 63.3529 573.363 63.3529C557.976 63.3529 544.443 70.9701 535.916 82.4888C538.326 83.7893 540.55 85.2756 542.775 86.9477C549.819 77.2868 560.942 71.3417 573.363 71.3417Z" fill="#FFF27C"/>
<path d="M556.864 99.9527C560.201 94.1933 566.318 90.4776 573.363 90.4776C580.407 90.4776 586.525 94.3791 589.862 99.9527C591.53 97.909 593.384 95.8654 595.423 93.8217C590.603 86.9477 582.447 82.303 573.363 82.303C564.279 82.303 556.122 86.7619 551.302 93.8217C553.342 95.6796 555.196 97.7232 556.864 99.9527Z" fill="#FFF27C"/>
<path d="M573.363 98.0947C567.801 98.0947 563.167 101.996 562.055 107.384C562.611 108.313 563.167 109.242 563.723 110.357C565.021 110.171 566.133 109.985 567.431 109.985V109.799C567.431 106.641 570.026 103.854 573.363 103.854C576.514 103.854 579.11 106.455 579.295 109.613C579.295 109.613 579.295 109.613 579.295 109.799V109.985C580.593 110.171 581.705 110.171 583.003 110.357C583.188 110.171 584.3 108.127 584.857 107.384C583.559 101.996 578.924 98.0947 573.363 98.0947Z" fill="#FFF27C"/>
<path d="M526.276 3.15835C527.017 2.04364 527.759 0.928928 528.686 0H515.338C519.046 0.743142 522.754 1.85786 526.276 3.15835Z" fill="#FFF27C"/>
<path d="M473.998 3.15835C473.257 2.04364 472.515 0.928928 471.588 0H484.75C481.043 0.743142 477.335 1.85786 473.998 3.15835Z" fill="#FFF27C"/>
<path d="M603.951 12.2618C606.176 10.7756 608.4 9.28928 610.81 7.80299C608.771 5.01621 606.361 2.22943 603.58 0H588.564C594.682 2.601 600.058 6.87407 603.951 12.2618Z" fill="#FFF27C"/>
<path d="M535.916 7.80299C538.326 9.10349 540.55 10.5898 542.775 12.2618C546.668 6.87407 552.044 2.78678 558.162 0H543.146C540.55 2.41521 538.14 5.01621 535.916 7.80299Z" fill="#FFF27C"/>
<path d="M573.363 116.116C548.707 116.116 527.203 129.307 515.338 149H528.501C538.882 135.623 555.01 127.077 573.363 127.077C591.53 127.077 607.844 135.623 618.225 149H631.388C619.523 129.307 598.019 116.116 573.363 116.116Z" fill="#FFF27C"/>
<path opacity="0.58" d="M573.363 116.116C548.707 116.116 527.203 129.307 515.338 149H528.501C538.882 135.623 555.01 127.077 573.363 127.077C591.53 127.077 607.844 135.623 618.225 149H631.388C619.523 129.307 598.019 116.116 573.363 116.116Z" fill="#FFF27C"/>
<path d="M543.146 149H558.162C562.796 146.956 567.987 145.842 573.363 145.842C578.739 145.842 583.93 146.956 588.564 149H603.58C595.423 141.94 584.857 137.667 573.363 137.667C561.869 137.667 551.302 141.94 543.146 149Z" fill="#FFF27C"/>
<path opacity="0.58" d="M543.146 149H558.162C562.796 146.956 567.987 145.842 573.363 145.842C578.739 145.842 583.93 146.956 588.564 149H603.58C595.423 141.94 584.857 137.667 573.363 137.667C561.869 137.667 551.302 141.94 543.146 149Z" fill="#FFF27C"/>
<path d="M353.5 15.606C373.15 15.606 390.391 25.6384 400.587 40.687C404.109 39.3866 407.632 38.2718 411.339 37.5287C399.475 17.8354 377.97 4.64465 353.315 4.64465C328.659 4.64465 307.155 17.8354 295.29 37.5287C298.998 38.2718 302.705 39.3866 306.042 40.687C316.609 25.4526 333.85 15.606 353.5 15.606Z" fill="#FFF27C"/>
<path d="M353.5 34.1846C366.106 34.1846 377.044 40.3155 384.088 49.6048C386.313 48.1185 388.537 46.6322 390.947 45.3317C382.605 33.813 368.887 26.1958 353.5 26.1958C338.113 26.1958 324.58 33.813 316.053 45.3317C318.463 46.6322 320.687 48.1185 322.912 49.6048C329.956 40.3155 340.894 34.1846 353.5 34.1846Z" fill="#FFF27C"/>
<path d="M337.001 62.7955C340.338 57.0361 346.455 53.3204 353.5 53.3204C360.545 53.3204 366.662 57.2219 369.999 62.7955C371.667 60.7519 373.521 58.7082 375.56 56.6646C370.741 49.7905 362.584 45.1459 353.5 45.1459C344.416 45.1459 336.26 49.6047 331.44 56.6646C333.293 58.7082 335.147 60.7519 337.001 62.7955Z" fill="#FFF27C"/>
<path d="M353.5 60.9377C347.939 60.9377 343.304 64.8392 342.192 70.227C342.748 71.1559 343.304 72.0848 343.86 73.1995C345.158 73.0137 346.27 72.828 347.568 72.828V72.6422C347.568 69.4838 350.163 66.697 353.5 66.697C356.652 66.697 359.247 69.298 359.432 72.4564C359.432 72.4564 359.432 72.4564 359.432 72.6422V72.828C360.73 73.0137 361.842 73.0137 363.14 73.1995C363.325 73.0137 364.438 70.9701 364.994 70.227C363.696 64.8392 359.061 60.9377 353.5 60.9377Z" fill="#FFF27C"/>
<path d="M353.5 90.106C373.15 90.106 390.391 100.138 400.587 115.187C404.109 113.887 407.632 112.772 411.339 112.029C399.475 92.3354 377.97 79.1447 353.315 79.1447C328.659 79.1447 307.155 92.3354 295.29 112.029C298.998 112.772 302.705 113.887 306.042 115.187C316.609 99.9526 333.85 90.106 353.5 90.106Z" fill="#FFF27C"/>
<path d="M353.5 108.685C366.106 108.685 377.044 114.816 384.088 124.105C386.313 122.619 388.537 121.132 390.947 119.646C382.605 108.127 368.887 100.51 353.5 100.51C338.113 100.51 324.58 108.127 316.053 119.646C318.463 120.946 320.687 122.433 322.912 124.105C329.956 114.816 340.894 108.685 353.5 108.685Z" fill="#FFF27C"/>
<path d="M337.001 137.481C340.338 131.722 346.455 128.006 353.5 128.006C360.545 128.006 366.662 131.908 369.999 137.481C371.667 135.438 373.521 133.394 375.56 131.35C370.741 124.476 362.584 119.832 353.5 119.832C344.416 119.832 336.26 124.291 331.44 131.35C333.293 133.208 335.147 135.252 337.001 137.481Z" fill="#FFF27C"/>
<path d="M353.5 135.438C347.939 135.438 343.304 139.339 342.192 144.727C342.748 145.656 343.304 146.585 343.86 147.7C345.158 147.514 346.27 147.328 347.568 147.328V147.142C347.568 143.984 350.163 141.197 353.5 141.197C356.652 141.197 359.247 143.798 359.432 146.956C359.432 146.956 359.432 146.956 359.432 147.142V147.328C360.73 147.514 361.842 147.514 363.14 147.7C363.325 147.514 364.438 145.47 364.994 144.727C363.696 139.339 359.061 135.438 353.5 135.438Z" fill="#FFF27C"/>
<path d="M410.227 25.4526C413.564 19.6933 419.681 15.9775 426.726 15.9775C433.77 15.9775 439.888 19.879 443.225 25.4526C444.893 23.409 446.747 21.3653 448.786 19.3217C443.966 12.4476 435.81 7.80298 426.726 7.80298C417.642 7.80298 409.485 12.2618 404.665 19.3217C406.705 21.1795 408.558 23.2232 410.227 25.4526Z" fill="#FFF27C"/>
<path d="M426.911 23.5948C421.35 23.5948 416.715 27.4963 415.603 32.8841C416.159 33.813 416.715 34.7419 417.271 35.8566C418.569 35.6708 419.681 35.4851 420.979 35.4851V35.2993C420.979 32.1409 423.574 29.3541 426.911 29.3541C430.063 29.3541 432.658 31.9551 432.843 35.1135C432.843 35.1135 432.843 35.1135 432.843 35.2993V35.4851C434.141 35.6708 435.253 35.6708 436.551 35.8566C436.736 35.6708 437.849 33.6272 438.405 32.8841C436.922 27.4963 432.287 23.5948 426.911 23.5948Z" fill="#FFF27C"/>
<path d="M426.726 52.5773C446.376 52.5773 463.617 62.6097 473.813 77.6584C477.335 76.3579 480.857 75.2431 484.565 74.5C472.701 54.8067 451.196 41.616 426.54 41.616C401.885 41.616 380.38 54.8067 368.516 74.5C372.224 75.2431 375.931 76.3579 379.268 77.6584C389.835 62.6097 407.075 52.5773 426.726 52.5773Z" fill="#FFF27C"/>
<path d="M426.726 71.3417C439.332 71.3417 450.269 77.4726 457.314 86.7619C459.538 85.2756 461.763 83.7893 464.173 82.4888C455.831 70.9701 442.113 63.3529 426.726 63.3529C411.339 63.3529 397.806 70.9701 389.279 82.4888C391.689 83.7893 393.913 85.2756 396.138 86.9477C403.182 77.2868 414.305 71.3417 426.726 71.3417Z" fill="#FFF27C"/>
<path d="M410.227 99.9527C413.564 94.1933 419.681 90.4776 426.726 90.4776C433.77 90.4776 439.888 94.3791 443.225 99.9527C444.893 97.909 446.747 95.8654 448.786 93.8217C443.966 86.9477 435.81 82.303 426.726 82.303C417.642 82.303 409.485 86.7619 404.665 93.8217C406.705 95.6796 408.558 97.7232 410.227 99.9527Z" fill="#FFF27C"/>
<path d="M426.911 98.0947C421.35 98.0947 416.715 101.996 415.603 107.384C416.159 108.313 416.715 109.242 417.271 110.357C418.569 110.171 419.681 109.985 420.979 109.985V109.799C420.979 106.641 423.574 103.854 426.911 103.854C430.063 103.854 432.658 106.455 432.843 109.613C432.843 109.613 432.843 109.613 432.843 109.799V109.985C434.141 110.171 435.253 110.171 436.551 110.357C436.736 110.171 437.849 108.127 438.405 107.384C436.922 101.996 432.287 98.0947 426.911 98.0947Z" fill="#FFF27C"/>
<path d="M379.639 3.15835C380.38 2.04364 381.122 0.928928 382.049 0H368.887C372.594 0.743142 376.117 1.85786 379.639 3.15835Z" fill="#FFF27C"/>
<path d="M327.361 3.15835C326.62 2.04364 325.878 0.928928 324.951 0H338.113C334.406 0.743142 330.883 1.85786 327.361 3.15835Z" fill="#FFF27C"/>
<path d="M457.314 12.2618C459.538 10.7756 461.763 9.28928 464.173 7.80299C462.134 5.01621 459.724 2.22943 456.943 0H441.927C448.045 2.601 453.421 6.87407 457.314 12.2618Z" fill="#FFF27C"/>
<path d="M389.464 7.80299C391.874 9.10349 394.099 10.5898 396.323 12.2618C400.216 6.87407 405.592 2.78678 411.71 0H396.694C393.913 2.41521 391.503 5.01621 389.464 7.80299Z" fill="#FFF27C"/>
<path d="M426.726 116.116C402.07 116.116 380.566 129.307 368.701 149H381.863C392.245 135.623 408.373 127.077 426.726 127.077C444.893 127.077 461.207 135.623 471.588 149H484.75C472.886 129.307 451.382 116.116 426.726 116.116Z" fill="#FFF27C"/>
<path opacity="0.58" d="M426.726 116.116C402.07 116.116 380.566 129.307 368.701 149H381.863C392.245 135.623 408.373 127.077 426.726 127.077C444.893 127.077 461.207 135.623 471.588 149H484.75C472.886 129.307 451.382 116.116 426.726 116.116Z" fill="#FFF27C"/>
<path d="M396.509 149H411.525C416.159 146.956 421.35 145.842 426.726 145.842C432.102 145.842 437.293 146.956 441.927 149H456.943C448.786 141.94 438.22 137.667 426.726 137.667C415.232 137.667 404.665 141.94 396.509 149Z" fill="#FFF27C"/>
<path opacity="0.58" d="M396.509 149H411.525C416.159 146.956 421.35 145.842 426.726 145.842C432.102 145.842 437.293 146.956 441.927 149H456.943C448.786 141.94 438.22 137.667 426.726 137.667C415.232 137.667 404.665 141.94 396.509 149Z" fill="#FFF27C"/>
<path d="M793.226 15.606C812.876 15.606 830.117 25.6384 840.313 40.687C843.835 39.3866 847.357 38.2718 851.065 37.5287C839.201 17.8354 817.696 4.64465 793.04 4.64465C768.385 4.64465 746.88 17.8354 735.016 37.5287C738.724 38.2718 742.431 39.3866 745.768 40.687C756.335 25.4526 773.575 15.606 793.226 15.606Z" fill="#FFF27C"/>
<path d="M793.226 34.1846C805.832 34.1846 816.769 40.3155 823.814 49.6048C826.038 48.1185 828.263 46.6322 830.673 45.3317C822.331 33.813 808.613 26.1958 793.226 26.1958C777.839 26.1958 764.306 33.813 755.779 45.3317C758.189 46.6322 760.413 48.1185 762.638 49.6048C769.682 40.3155 780.805 34.1846 793.226 34.1846Z" fill="#FFF27C"/>
<path d="M776.727 62.7955C780.064 57.0361 786.181 53.3204 793.226 53.3204C800.27 53.3204 806.388 57.2219 809.725 62.7955C811.393 60.7519 813.247 58.7082 815.286 56.6646C810.281 49.7905 802.31 45.1459 793.226 45.1459C784.142 45.1459 775.985 49.6047 771.165 56.6646C773.205 58.7082 775.058 60.7519 776.727 62.7955Z" fill="#FFF27C"/>
<path d="M793.411 60.9377C787.85 60.9377 783.215 64.8392 782.103 70.227C782.659 71.1559 783.215 72.0848 783.771 73.1995C785.069 73.0137 786.181 72.828 787.479 72.828V72.6422C787.479 69.4838 790.074 66.697 793.411 66.697C796.563 66.697 799.158 69.298 799.343 72.4564C799.343 72.4564 799.343 72.4564 799.343 72.6422V72.828C800.641 73.0137 801.753 73.0137 803.051 73.1995C803.236 73.0137 804.349 70.9701 804.905 70.227C803.422 64.8392 798.787 60.9377 793.411 60.9377Z" fill="#FFF27C"/>
<path d="M793.226 90.106C812.876 90.106 830.117 100.138 840.313 115.187C843.835 113.887 847.357 112.772 851.065 112.029C839.201 92.3354 817.696 79.1447 793.04 79.1447C768.385 79.1447 746.88 92.3354 735.016 112.029C738.724 112.772 742.431 113.887 745.768 115.187C756.335 99.9526 773.575 90.106 793.226 90.106Z" fill="#FFF27C"/>
<path d="M793.226 108.685C805.832 108.685 816.769 114.816 823.814 124.105C826.038 122.619 828.263 121.132 830.673 119.646C822.331 108.127 808.613 100.51 793.226 100.51C777.839 100.51 764.306 108.127 755.779 119.646C758.189 120.946 760.413 122.433 762.638 124.105C769.682 114.816 780.805 108.685 793.226 108.685Z" fill="#FFF27C"/>
<path d="M776.727 137.481C780.064 131.722 786.181 128.006 793.226 128.006C800.27 128.006 806.388 131.908 809.725 137.481C811.393 135.438 813.247 133.394 815.286 131.35C810.281 124.476 802.31 119.832 793.226 119.832C784.142 119.832 775.985 124.291 771.165 131.35C773.205 133.208 775.058 135.252 776.727 137.481Z" fill="#FFF27C"/>
<path d="M793.411 135.438C787.85 135.438 783.215 139.339 782.103 144.727C782.659 145.656 783.215 146.585 783.771 147.7C785.069 147.514 786.181 147.328 787.479 147.328V147.142C787.479 143.984 790.074 141.197 793.411 141.197C796.563 141.197 799.158 143.798 799.343 146.956C799.343 146.956 799.343 146.956 799.343 147.142V147.328C800.641 147.514 801.753 147.514 803.051 147.7C803.236 147.514 804.349 145.47 804.905 144.727C803.422 139.339 798.787 135.438 793.411 135.438Z" fill="#FFF27C"/>
<path d="M850.138 25.4526C853.475 19.6933 859.593 15.9775 866.637 15.9775C873.682 15.9775 879.799 19.879 883.136 25.4526C884.805 23.409 886.658 21.3653 888.698 19.3217C883.878 12.4476 875.721 7.80298 866.637 7.80298C857.553 7.80298 849.397 12.2618 844.577 19.3217C846.43 21.1795 848.284 23.2232 850.138 25.4526Z" fill="#FFF27C"/>
<path d="M866.637 23.5948C861.076 23.5948 856.441 27.4963 855.329 32.8841C855.885 33.813 856.441 34.7419 856.997 35.8566C858.295 35.6708 859.407 35.4851 860.705 35.4851V35.2993C860.705 32.1409 863.3 29.3541 866.637 29.3541C869.789 29.3541 872.384 31.9551 872.569 35.1135C872.569 35.1135 872.569 35.1135 872.569 35.2993V35.4851C873.867 35.6708 874.979 35.6708 876.277 35.8566C876.462 35.6708 877.575 33.6272 878.131 32.8841C876.833 27.4963 872.199 23.5948 866.637 23.5948Z" fill="#FFF27C"/>
<path d="M866.637 52.5773C886.288 52.5773 903.528 62.6097 913.724 77.6584C917.246 76.3579 920.769 75.2431 924.476 74.5C912.612 54.8067 891.107 41.616 866.452 41.616C841.796 41.616 820.292 54.8067 808.427 74.5C812.135 75.2431 815.842 76.3579 819.179 77.6584C829.561 62.6097 846.987 52.5773 866.637 52.5773Z" fill="#FFF27C"/>
<path d="M866.637 71.3417C879.243 71.3417 890.181 77.4726 897.225 86.7619C899.45 85.2756 901.674 83.7893 904.084 82.4888C895.742 70.9701 882.024 63.3529 866.637 63.3529C851.25 63.3529 837.718 70.9701 829.19 82.4888C831.6 83.7893 833.825 85.2756 836.049 86.9477C842.908 77.2868 854.031 71.3417 866.637 71.3417Z" fill="#FFF27C"/>
<path d="M850.138 99.9527C853.475 94.1933 859.593 90.4776 866.637 90.4776C873.682 90.4776 879.799 94.3791 883.136 99.9527C884.805 97.909 886.658 95.8654 888.698 93.8217C883.878 86.9477 875.721 82.303 866.637 82.303C857.553 82.303 849.397 86.7619 844.577 93.8217C846.43 95.6796 848.284 97.7232 850.138 99.9527Z" fill="#FFF27C"/>
<path d="M866.637 98.0947C861.076 98.0947 856.441 101.996 855.329 107.384C855.885 108.313 856.441 109.242 856.997 110.357C858.295 110.171 859.407 109.985 860.705 109.985V109.799C860.705 106.641 863.3 103.854 866.637 103.854C869.789 103.854 872.384 106.455 872.569 109.613C872.569 109.613 872.569 109.613 872.569 109.799V109.985C873.867 110.171 874.979 110.171 876.277 110.357C876.462 110.171 877.575 108.127 878.131 107.384C876.833 101.996 872.199 98.0947 866.637 98.0947Z" fill="#FFF27C"/>
<path d="M819.365 3.15835C820.106 2.04364 820.848 0.928928 821.775 0H808.613C812.32 0.743142 816.028 1.85786 819.365 3.15835Z" fill="#FFF27C"/>
<path d="M767.087 3.15835C766.345 2.04364 765.604 0.928928 764.677 0H777.839C774.317 0.743142 770.609 1.85786 767.087 3.15835Z" fill="#FFF27C"/>
<path d="M897.225 12.2618C899.45 10.7756 901.674 9.28928 904.084 7.80299C902.045 5.01621 899.635 2.22943 896.854 0H881.838C887.771 2.601 893.147 6.87407 897.225 12.2618Z" fill="#FFF27C"/>
<path d="M829.19 7.80299C831.6 9.10349 833.825 10.5898 836.049 12.2618C839.942 6.87407 845.318 2.78678 851.436 0H836.42C833.639 2.41521 831.229 5.01621 829.19 7.80299Z" fill="#FFF27C"/>
<path d="M866.637 116.116C841.981 116.116 820.477 129.307 808.613 149H821.775C832.156 135.623 848.284 127.077 866.637 127.077C884.805 127.077 901.118 135.623 911.5 149H924.662C912.612 129.307 891.108 116.116 866.637 116.116Z" fill="#FFF27C"/>
<path opacity="0.58" d="M866.637 116.116C841.981 116.116 820.477 129.307 808.613 149H821.775C832.156 135.623 848.284 127.077 866.637 127.077C884.805 127.077 901.118 135.623 911.5 149H924.662C912.612 129.307 891.108 116.116 866.637 116.116Z" fill="#FFF27C"/>
<path d="M836.42 149H851.436C856.07 146.956 861.261 145.842 866.637 145.842C872.013 145.842 877.204 146.956 881.838 149H896.854C888.697 141.94 878.131 137.667 866.637 137.667C854.958 137.667 844.391 141.94 836.42 149Z" fill="#FFF27C"/>
<path opacity="0.58" d="M836.42 149H851.436C856.07 146.956 861.261 145.842 866.637 145.842C872.013 145.842 877.204 146.956 881.838 149H896.854C888.697 141.94 878.131 137.667 866.637 137.667C854.958 137.667 844.391 141.94 836.42 149Z" fill="#FFF27C"/>
<path d="M646.589 15.606C666.239 15.606 683.48 25.6384 693.676 40.687C697.198 39.3866 700.72 38.2718 704.428 37.5287C692.563 17.8354 671.059 4.64465 646.403 4.64465C621.748 4.64465 600.243 17.8354 588.379 37.5287C592.086 38.2718 595.794 39.3866 599.131 40.687C609.698 25.4526 627.124 15.606 646.589 15.606Z" fill="#FFF27C"/>
<path d="M646.589 34.1846C659.195 34.1846 670.132 40.3155 677.177 49.6048C679.401 48.1185 681.626 46.6322 684.036 45.3317C675.694 33.813 661.975 26.1958 646.589 26.1958C631.202 26.1958 617.669 33.813 609.142 45.3317C611.552 46.6322 613.776 48.1185 616.001 49.6048C623.045 40.3155 634.168 34.1846 646.589 34.1846Z" fill="#FFF27C"/>
<path d="M630.09 62.7955C633.427 57.0361 639.544 53.3204 646.589 53.3204C653.633 53.3204 659.751 57.2219 663.088 62.7955C664.756 60.7519 666.61 58.7082 668.649 56.6646C663.829 49.7905 655.672 45.1459 646.589 45.1459C637.505 45.1459 629.348 49.6047 624.528 56.6646C626.568 58.7082 628.421 60.7519 630.09 62.7955Z" fill="#FFF27C"/>
<path d="M646.774 60.9377C641.213 60.9377 636.578 64.8392 635.466 70.227C636.022 71.1559 636.578 72.0848 637.134 73.1995C638.432 73.0137 639.544 72.828 640.842 72.828V72.6422C640.842 69.4838 643.437 66.697 646.774 66.697C649.926 66.697 652.521 69.298 652.706 72.4564C652.706 72.4564 652.706 72.4564 652.706 72.6422V72.828C654.004 73.0137 655.116 73.0137 656.414 73.1995C656.599 73.0137 657.712 70.9701 658.268 70.227C656.785 64.8392 652.336 60.9377 646.774 60.9377Z" fill="#FFF27C"/>
<path d="M646.589 90.106C666.239 90.106 683.48 100.138 693.676 115.187C697.198 113.887 700.72 112.772 704.428 112.029C692.563 92.3354 671.059 79.1447 646.403 79.1447C621.748 79.1447 600.243 92.3354 588.379 112.029C592.086 112.772 595.794 113.887 599.131 115.187C609.698 99.9526 627.124 90.106 646.589 90.106Z" fill="#FFF27C"/>
<path d="M646.589 108.685C659.195 108.685 670.132 114.816 677.177 124.105C679.401 122.619 681.626 121.132 684.036 119.646C675.694 108.127 661.975 100.51 646.589 100.51C631.202 100.51 617.669 108.127 609.142 119.646C611.552 120.946 613.776 122.433 616.001 124.105C623.045 114.816 634.168 108.685 646.589 108.685Z" fill="#FFF27C"/>
<path d="M630.09 137.481C633.427 131.722 639.544 128.006 646.589 128.006C653.633 128.006 659.751 131.908 663.088 137.481C664.756 135.438 666.61 133.394 668.649 131.35C663.829 124.476 655.672 119.832 646.589 119.832C637.505 119.832 629.348 124.291 624.528 131.35C626.568 133.208 628.421 135.252 630.09 137.481Z" fill="#FFF27C"/>
<path d="M646.774 135.438C641.213 135.438 636.578 139.339 635.466 144.727C636.022 145.656 636.578 146.585 637.134 147.7C638.432 147.514 639.544 147.328 640.842 147.328V147.142C640.842 143.984 643.437 141.197 646.774 141.197C649.926 141.197 652.521 143.798 652.706 146.956C652.706 146.956 652.706 146.956 652.706 147.142V147.328C654.004 147.514 655.116 147.514 656.414 147.7C656.599 147.514 657.712 145.47 658.268 144.727C656.785 139.339 652.336 135.438 646.774 135.438Z" fill="#FFF27C"/>
<path d="M703.501 25.4526C706.838 19.6933 712.955 15.9775 720 15.9775C727.045 15.9775 733.162 19.879 736.499 25.4526C738.167 23.409 740.021 21.3653 742.06 19.3217C737.24 12.4476 729.084 7.80298 720 7.80298C710.916 7.80298 702.76 12.2618 697.94 19.3217C699.793 21.1795 701.647 23.2232 703.501 25.4526Z" fill="#FFF27C"/>
<path d="M720 23.5948C714.439 23.5948 709.804 27.4963 708.692 32.8841C709.248 33.813 709.804 34.7419 710.36 35.8566C711.658 35.6708 712.77 35.4851 714.068 35.4851V35.2993C714.068 32.1409 716.663 29.3541 720 29.3541C723.151 29.3541 725.747 31.9551 725.932 35.1135C725.932 35.1135 725.932 35.1135 725.932 35.2993V35.4851C727.23 35.6708 728.342 35.6708 729.64 35.8566C729.825 35.6708 730.938 33.6272 731.494 32.8841C730.196 27.4963 725.561 23.5948 720 23.5948Z" fill="#FFF27C"/>
<path d="M720 52.5773C739.65 52.5773 756.891 62.6097 767.087 77.6584C770.609 76.3579 774.132 75.2431 777.839 74.5C765.975 54.8067 744.47 41.616 719.815 41.616C695.159 41.616 673.654 54.8067 661.79 74.5C665.498 75.2431 669.205 76.3579 672.542 77.6584C683.109 62.6097 700.349 52.5773 720 52.5773Z" fill="#FFF27C"/>
<path d="M720 71.3417C732.606 71.3417 743.543 77.4726 750.588 86.7619C752.813 85.2756 755.037 83.7893 757.447 82.4888C748.92 70.7843 735.387 63.1671 720 63.1671C704.613 63.1671 691.08 70.7843 682.553 82.303C684.963 83.6035 687.187 85.0898 689.412 86.7619C696.456 77.2868 707.394 71.3417 720 71.3417Z" fill="#FFF27C"/>
<path d="M703.501 99.9527C706.838 94.1933 712.955 90.4776 720 90.4776C727.045 90.4776 733.162 94.3791 736.499 99.9527C738.167 97.909 740.021 95.8654 742.06 93.8217C737.24 86.9477 729.084 82.303 720 82.303C710.916 82.303 702.76 86.7619 697.94 93.8217C699.793 95.6796 701.647 97.7232 703.501 99.9527Z" fill="#FFF27C"/>
<path d="M720 98.0947C714.439 98.0947 709.804 101.996 708.692 107.384C709.248 108.313 709.804 109.242 710.36 110.357C711.658 110.171 712.77 109.985 714.068 109.985V109.799C714.068 106.641 716.663 103.854 720 103.854C723.151 103.854 725.747 106.455 725.932 109.613C725.932 109.613 725.932 109.613 725.932 109.799V109.985C727.23 110.171 728.342 110.171 729.64 110.357C729.825 110.171 730.938 108.127 731.494 107.384C730.196 101.996 725.561 98.0947 720 98.0947Z" fill="#FFF27C"/>
<path d="M672.913 3.15835C673.655 2.04364 674.396 0.928928 675.323 0H662.161C665.683 0.743142 669.391 1.85786 672.913 3.15835Z" fill="#FFF27C"/>
<path d="M620.45 3.15835C619.708 2.04364 618.967 0.928928 618.04 0H631.202C627.68 0.743142 623.972 1.85786 620.45 3.15835Z" fill="#FFF27C"/>
<path d="M750.588 12.2618C752.813 10.7756 755.037 9.28928 757.447 7.80299C755.408 5.01621 752.998 2.22943 750.217 0H735.201C741.319 2.601 746.51 6.87407 750.588 12.2618Z" fill="#FFF27C"/>
<path d="M682.553 7.80299C684.963 9.10349 687.187 10.5898 689.412 12.2618C693.305 6.87407 698.681 2.78678 704.799 0H689.783C687.002 2.41521 684.777 5.01621 682.553 7.80299Z" fill="#FFF27C"/>
<path d="M720 116.116C695.344 116.116 673.84 129.307 661.975 149H675.138C685.519 135.623 701.647 127.077 720 127.077C738.167 127.077 754.481 135.623 764.862 149H778.025C766.16 129.307 744.656 116.116 720 116.116Z" fill="#FFF27C"/>
<path opacity="0.58" d="M720 116.116C695.344 116.116 673.84 129.307 661.975 149H675.138C685.519 135.623 701.647 127.077 720 127.077C738.167 127.077 754.481 135.623 764.862 149H778.025C766.16 129.307 744.656 116.116 720 116.116Z" fill="#FFF27C"/>
<path d="M689.783 149H704.799C709.433 146.956 714.624 145.842 720 145.842C725.376 145.842 730.567 146.956 735.201 149H750.217C742.06 141.94 731.494 137.667 720 137.667C708.506 137.667 697.94 141.94 689.783 149Z" fill="#FFF27C"/>
<path opacity="0.58" d="M689.783 149H704.799C709.433 146.956 714.624 145.842 720 145.842C725.376 145.842 730.567 146.956 735.201 149H750.217C742.06 141.94 731.494 137.667 720 137.667C708.506 137.667 697.94 141.94 689.783 149Z" fill="#FFF27C"/>
<path d="M1086.5 15.606C1106.15 15.606 1123.39 25.6384 1133.59 40.687C1137.11 39.3866 1140.63 38.2718 1144.34 37.5287C1132.47 17.8354 1110.97 4.64465 1086.31 4.64465C1061.66 4.64465 1040.15 17.8354 1028.29 37.5287C1032 38.2718 1035.71 39.3866 1039.04 40.687C1049.61 25.4526 1066.85 15.606 1086.5 15.606Z" fill="#FFF27C"/>
<path d="M1086.5 34.1846C1099.11 34.1846 1110.04 40.3155 1117.09 49.6048C1119.31 48.1185 1121.54 46.6322 1123.95 45.3317C1115.6 33.813 1101.89 26.1958 1086.5 26.1958C1071.11 26.1958 1057.58 33.813 1049.05 45.3317C1051.46 46.6322 1053.69 48.1185 1055.91 49.6048C1062.96 40.3155 1073.89 34.1846 1086.5 34.1846Z" fill="#FFF27C"/>
<path d="M1070 62.7955C1073.34 57.0361 1079.46 53.3204 1086.5 53.3204C1093.54 53.3204 1099.66 57.2219 1103 62.7955C1104.67 60.7519 1106.52 58.7082 1108.56 56.6646C1103.74 49.7905 1095.58 45.1459 1086.5 45.1459C1077.42 45.1459 1069.26 49.6047 1064.44 56.6646C1066.29 58.7082 1068.15 60.7519 1070 62.7955Z" fill="#FFF27C"/>
<path d="M1086.5 60.9377C1080.94 60.9377 1076.3 64.8392 1075.19 70.227C1075.75 71.1559 1076.3 72.0848 1076.86 73.1995C1078.16 73.0137 1079.27 72.828 1080.57 72.828V72.6422C1080.57 69.4838 1083.16 66.697 1086.5 66.697C1089.65 66.697 1092.25 69.298 1092.43 72.4564C1092.43 72.4564 1092.43 72.4564 1092.43 72.6422V72.828C1093.73 73.0137 1094.84 73.0137 1096.14 73.1995C1096.33 73.0137 1097.44 70.9701 1097.99 70.227C1096.7 64.8392 1092.06 60.9377 1086.5 60.9377Z" fill="#FFF27C"/>
<path d="M1086.5 90.106C1106.15 90.106 1123.39 100.138 1133.59 115.187C1137.11 113.887 1140.63 112.772 1144.34 112.029C1132.47 92.3354 1110.97 79.1447 1086.31 79.1447C1061.66 79.1447 1040.15 92.3354 1028.29 112.029C1032 112.772 1035.71 113.887 1039.04 115.187C1049.61 99.9526 1066.85 90.106 1086.5 90.106Z" fill="#FFF27C"/>
<path d="M1086.5 108.685C1099.11 108.685 1110.04 114.816 1117.09 124.105C1119.31 122.619 1121.54 121.132 1123.95 119.646C1115.6 108.127 1101.89 100.51 1086.5 100.51C1071.11 100.51 1057.58 108.127 1049.05 119.646C1051.46 120.946 1053.69 122.433 1055.91 124.105C1062.96 114.816 1073.89 108.685 1086.5 108.685Z" fill="#FFF27C"/>
<path d="M1070 137.481C1073.34 131.722 1079.46 128.006 1086.5 128.006C1093.54 128.006 1099.66 131.908 1103 137.481C1104.67 135.438 1106.52 133.394 1108.56 131.35C1103.74 124.476 1095.58 119.832 1086.5 119.832C1077.42 119.832 1069.26 124.291 1064.44 131.35C1066.29 133.208 1068.15 135.252 1070 137.481Z" fill="#FFF27C"/>
<path d="M1086.5 135.438C1080.94 135.438 1076.3 139.339 1075.19 144.727C1075.75 145.656 1076.3 146.585 1076.86 147.7C1078.16 147.514 1079.27 147.328 1080.57 147.328V147.142C1080.57 143.984 1083.16 141.197 1086.5 141.197C1089.65 141.197 1092.25 143.798 1092.43 146.956C1092.43 146.956 1092.43 146.956 1092.43 147.142V147.328C1093.73 147.514 1094.84 147.514 1096.14 147.7C1096.33 147.514 1097.44 145.47 1097.99 144.727C1096.7 139.339 1092.06 135.438 1086.5 135.438Z" fill="#FFF27C"/>
<path d="M1143.23 25.4526C1146.56 19.6933 1152.68 15.9775 1159.73 15.9775C1166.77 15.9775 1172.89 19.879 1176.22 25.4526C1177.89 23.409 1179.75 21.3653 1181.79 19.3217C1176.78 12.4476 1168.81 7.80298 1159.73 7.80298C1150.64 7.80298 1142.49 12.2618 1137.67 19.3217C1139.7 21.1795 1141.56 23.2232 1143.23 25.4526Z" fill="#FFF27C"/>
<path d="M1159.91 23.5948C1154.35 23.5948 1149.72 27.4963 1148.6 32.8841C1149.16 33.813 1149.72 34.7419 1150.27 35.8566C1151.57 35.6708 1152.68 35.4851 1153.98 35.4851V35.2993C1153.98 32.1409 1156.57 29.3541 1159.91 29.3541C1163.06 29.3541 1165.66 31.9551 1165.84 35.1135C1165.84 35.1135 1165.84 35.1135 1165.84 35.2993V35.4851C1167.14 35.6708 1168.25 35.6708 1169.55 35.8566C1169.74 35.6708 1170.85 33.6272 1171.41 32.8841C1169.92 27.4963 1165.29 23.5948 1159.91 23.5948Z" fill="#FFF27C"/>
<path d="M1159.73 52.5773C1179.38 52.5773 1196.62 62.6097 1206.81 77.6584C1210.34 76.3579 1213.86 75.2431 1217.56 74.5C1205.7 54.8067 1184.2 41.616 1159.54 41.616C1134.88 41.616 1113.38 54.8067 1101.52 74.5C1105.22 75.2431 1108.93 76.3579 1112.27 77.6584C1122.83 62.6097 1140.08 52.5773 1159.73 52.5773Z" fill="#FFF27C"/>
<path d="M1159.73 71.3417C1172.33 71.3417 1183.27 77.4726 1190.31 86.7619C1192.54 85.2756 1194.76 83.7893 1197.17 82.4888C1188.83 70.9701 1175.11 63.3529 1159.73 63.3529C1144.34 63.3529 1130.81 70.9701 1122.28 82.4888C1124.69 83.7893 1126.91 85.2756 1129.14 86.9477C1136.18 77.2868 1147.31 71.3417 1159.73 71.3417Z" fill="#FFF27C"/>
<path d="M1143.23 99.9527C1146.56 94.1933 1152.68 90.4776 1159.73 90.4776C1166.77 90.4776 1172.89 94.3791 1176.22 99.9527C1177.89 97.909 1179.75 95.8654 1181.79 93.8217C1176.78 86.9477 1168.81 82.303 1159.73 82.303C1150.64 82.303 1142.49 86.7619 1137.67 93.8217C1139.7 95.6796 1141.56 97.7232 1143.23 99.9527Z" fill="#FFF27C"/>
<path d="M1159.91 98.0947C1154.35 98.0947 1149.72 101.996 1148.6 107.384C1149.16 108.313 1149.72 109.242 1150.27 110.357C1151.57 110.171 1152.68 109.985 1153.98 109.985V109.799C1153.98 106.641 1156.57 103.854 1159.91 103.854C1163.06 103.854 1165.66 106.455 1165.84 109.613C1165.84 109.613 1165.84 109.613 1165.84 109.799V109.985C1167.14 110.171 1168.25 110.171 1169.55 110.357C1169.74 110.171 1170.85 108.127 1171.41 107.384C1169.92 101.996 1165.29 98.0947 1159.91 98.0947Z" fill="#FFF27C"/>
<path d="M1112.64 3.15835C1113.38 2.04364 1114.12 0.928928 1115.05 0H1101.89C1105.59 0.743142 1109.12 1.85786 1112.64 3.15835Z" fill="#FFF27C"/>
<path d="M1060.36 3.15835C1059.62 2.04364 1058.88 0.928928 1057.95 0H1071.11C1067.41 0.743142 1063.88 1.85786 1060.36 3.15835Z" fill="#FFF27C"/>
<path d="M1190.31 12.2618C1192.54 10.7756 1194.76 9.28928 1197.17 7.80299C1195.13 5.01621 1192.72 2.22943 1189.94 0H1174.93C1181.04 2.601 1186.42 6.87407 1190.31 12.2618Z" fill="#FFF27C"/>
<path d="M1122.46 7.80299C1124.87 9.10349 1127.1 10.5898 1129.32 12.2618C1133.22 6.87407 1138.59 2.78678 1144.71 0H1129.69C1126.91 2.41521 1124.5 5.01621 1122.46 7.80299Z" fill="#FFF27C"/>
<path d="M1159.73 116.116C1135.07 116.116 1113.57 129.307 1101.7 149H1114.86C1125.24 135.623 1141.37 127.077 1159.73 127.077C1177.89 127.077 1194.21 135.623 1204.59 149H1217.75C1205.89 129.307 1184.38 116.116 1159.73 116.116Z" fill="#FFF27C"/>
<path opacity="0.58" d="M1159.73 116.116C1135.07 116.116 1113.57 129.307 1101.7 149H1114.86C1125.24 135.623 1141.37 127.077 1159.73 127.077C1177.89 127.077 1194.21 135.623 1204.59 149H1217.75C1205.89 129.307 1184.38 116.116 1159.73 116.116Z" fill="#FFF27C"/>
<path d="M1129.51 149H1144.52C1149.16 146.956 1154.35 145.842 1159.73 145.842C1165.1 145.842 1170.29 146.956 1174.93 149H1189.94C1181.79 141.94 1171.22 137.667 1159.73 137.667C1148.23 137.667 1137.67 141.94 1129.51 149Z" fill="#FFF27C"/>
<path opacity="0.58" d="M1129.51 149H1144.52C1149.16 146.956 1154.35 145.842 1159.73 145.842C1165.1 145.842 1170.29 146.956 1174.93 149H1189.94C1181.79 141.94 1171.22 137.667 1159.73 137.667C1148.23 137.667 1137.67 141.94 1129.51 149Z" fill="#FFF27C"/>
<path d="M940.21 15.606C959.86 15.606 977.101 25.6384 987.297 40.687C990.819 39.3866 994.341 38.2718 998.049 37.5287C986.185 17.8354 964.68 4.64465 940.025 4.64465C915.369 4.64465 893.864 17.8354 882 37.5287C885.708 38.2718 889.415 39.3866 892.752 40.687C903.319 25.4526 920.559 15.606 940.21 15.606Z" fill="#FFF27C"/>
<path d="M940.21 34.1846C952.816 34.1846 963.753 40.3155 970.798 49.6048C973.022 48.1185 975.247 46.6322 977.657 45.3317C969.315 33.813 955.597 26.1958 940.21 26.1958C924.823 26.1958 911.29 33.813 902.763 45.3317C905.173 46.6322 907.397 48.1185 909.622 49.6048C916.666 40.3155 927.789 34.1846 940.21 34.1846Z" fill="#FFF27C"/>
<path d="M923.711 62.7955C927.048 57.0361 933.165 53.3204 940.21 53.3204C947.254 53.3204 953.372 57.2219 956.709 62.7955C958.377 60.7519 960.231 58.7082 962.27 56.6646C957.265 49.7905 949.294 45.1459 940.21 45.1459C931.126 45.1459 922.969 49.6047 918.149 56.6646C920.003 58.7082 922.042 60.7519 923.711 62.7955Z" fill="#FFF27C"/>
<path d="M940.21 60.9377C934.648 60.9377 930.014 64.8392 928.902 70.227C929.458 71.1559 930.014 72.0848 930.57 73.1995C931.868 73.0137 932.98 72.828 934.278 72.828V72.6422C934.278 69.4838 936.873 66.697 940.21 66.697C943.361 66.697 945.957 69.298 946.142 72.4564C946.142 72.4564 946.142 72.4564 946.142 72.6422V72.828C947.44 73.0137 948.552 73.0137 949.85 73.1995C950.035 73.0137 951.147 70.9701 951.704 70.227C950.406 64.8392 945.771 60.9377 940.21 60.9377Z" fill="#FFF27C"/>
<path d="M940.21 90.106C959.86 90.106 977.101 100.138 987.297 115.187C990.819 113.887 994.341 112.772 998.049 112.029C986.185 92.3354 964.68 79.1447 940.025 79.1447C915.369 79.1447 893.864 92.3354 882 112.029C885.708 112.772 889.415 113.887 892.752 115.187C903.319 99.9526 920.559 90.106 940.21 90.106Z" fill="#FFF27C"/>
<path d="M940.21 108.685C952.816 108.685 963.753 114.816 970.798 124.105C973.022 122.619 975.247 121.132 977.657 119.646C969.315 108.127 955.597 100.51 940.21 100.51C924.823 100.51 911.29 108.127 902.763 119.646C905.173 120.946 907.397 122.433 909.622 124.105C916.666 114.816 927.789 108.685 940.21 108.685Z" fill="#FFF27C"/>
<path d="M923.711 137.481C927.048 131.722 933.165 128.006 940.21 128.006C947.254 128.006 953.372 131.908 956.709 137.481C958.377 135.438 960.231 133.394 962.27 131.35C957.265 124.476 949.294 119.832 940.21 119.832C931.126 119.832 922.969 124.291 918.149 131.35C920.003 133.208 922.042 135.252 923.711 137.481Z" fill="#FFF27C"/>
<path d="M940.21 135.438C934.648 135.438 930.014 139.339 928.902 144.727C929.458 145.656 930.014 146.585 930.57 147.7C931.868 147.514 932.98 147.328 934.278 147.328V147.142C934.278 143.984 936.873 141.197 940.21 141.197C943.361 141.197 945.957 143.798 946.142 146.956C946.142 146.956 946.142 146.956 946.142 147.142V147.328C947.44 147.514 948.552 147.514 949.85 147.7C950.035 147.514 951.147 145.47 951.704 144.727C950.406 139.339 945.771 135.438 940.21 135.438Z" fill="#FFF27C"/>
<path d="M996.937 25.4526C1000.27 19.6933 1006.39 15.9775 1013.44 15.9775C1020.48 15.9775 1026.6 19.879 1029.93 25.4526C1031.6 23.409 1033.46 21.3653 1035.5 19.3217C1030.49 12.4476 1022.52 7.80298 1013.44 7.80298C1004.35 7.80298 996.195 12.2618 991.375 19.3217C993.414 21.1795 995.268 23.2232 996.937 25.4526Z" fill="#FFF27C"/>
<path d="M1013.62 23.5948C1008.06 23.5948 1003.43 27.4963 1002.31 32.8841C1002.87 33.813 1003.43 34.7419 1003.98 35.8566C1005.28 35.6708 1006.39 35.4851 1007.69 35.4851V35.2993C1007.69 32.1409 1010.28 29.3541 1013.62 29.3541C1016.77 29.3541 1019.37 31.9551 1019.55 35.1135C1019.55 35.1135 1019.55 35.1135 1019.55 35.2993V35.4851C1020.85 35.6708 1021.96 35.6708 1023.26 35.8566C1023.45 35.6708 1024.56 33.6272 1025.11 32.8841C1023.63 27.4963 1019.18 23.5948 1013.62 23.5948Z" fill="#FFF27C"/>
<path d="M1013.44 52.5773C1033.09 52.5773 1050.33 62.6097 1060.52 77.6584C1064.05 76.3579 1067.57 75.2431 1071.27 74.5C1059.41 54.8067 1037.91 41.616 1013.25 41.616C988.595 41.616 967.09 54.8067 955.226 74.5C958.933 75.2431 962.641 76.3579 965.978 77.6584C976.545 62.6097 993.971 52.5773 1013.44 52.5773Z" fill="#FFF27C"/>
<path d="M1013.44 71.3417C1026.04 71.3417 1036.98 77.4726 1044.02 86.7619C1046.25 85.2756 1048.47 83.7893 1050.88 82.4888C1042.54 70.9701 1028.82 63.3529 1013.44 63.3529C998.049 63.3529 984.516 70.9701 975.989 82.4888C978.398 83.7893 980.623 85.2756 982.848 86.9477C989.892 77.2868 1001.02 71.3417 1013.44 71.3417Z" fill="#FFF27C"/>
<path d="M996.937 99.9527C1000.27 94.1933 1006.39 90.4776 1013.44 90.4776C1020.48 90.4776 1026.6 94.3791 1029.93 99.9527C1031.6 97.909 1033.46 95.8654 1035.5 93.8217C1030.49 86.9477 1022.52 82.303 1013.44 82.303C1004.35 82.303 996.195 86.7619 991.375 93.8217C993.414 95.6796 995.268 97.7232 996.937 99.9527Z" fill="#FFF27C"/>
<path d="M1013.62 98.0947C1008.06 98.0947 1003.43 101.996 1002.31 107.384C1002.87 108.313 1003.43 109.242 1003.98 110.357C1005.28 110.171 1006.39 109.985 1007.69 109.985V109.799C1007.69 106.641 1010.28 103.854 1013.62 103.854C1016.77 103.854 1019.37 106.455 1019.55 109.613C1019.55 109.613 1019.55 109.613 1019.55 109.799V109.985C1020.85 110.171 1021.96 110.171 1023.26 110.357C1023.45 110.171 1024.56 108.127 1025.11 107.384C1023.63 101.996 1019.18 98.0947 1013.62 98.0947Z" fill="#FFF27C"/>
<path d="M966.349 3.15835C967.09 2.04364 967.832 0.928928 968.759 0H955.597C959.304 0.743142 962.826 1.85786 966.349 3.15835Z" fill="#FFF27C"/>
<path d="M914.071 3.15835C913.329 2.04364 912.588 0.928928 911.661 0H924.823C921.116 0.743142 917.593 1.85786 914.071 3.15835Z" fill="#FFF27C"/>
<path d="M1044.02 12.2618C1046.25 10.7756 1048.47 9.28928 1050.88 7.80299C1048.84 5.01621 1046.43 2.22943 1043.65 0H1028.64C1034.75 2.601 1040.13 6.87407 1044.02 12.2618Z" fill="#FFF27C"/>
<path d="M976.174 7.80299C978.584 9.10349 980.808 10.5898 983.033 12.2618C986.926 6.87407 992.302 2.78678 998.42 0H983.404C980.623 2.41521 978.213 5.01621 976.174 7.80299Z" fill="#FFF27C"/>
<path d="M1013.44 116.116C988.78 116.116 967.276 129.307 955.411 149H968.573C978.955 135.623 995.083 127.077 1013.44 127.077C1031.6 127.077 1047.92 135.623 1058.3 149H1071.46C1059.6 129.307 1038.09 116.116 1013.44 116.116Z" fill="#FFF27C"/>
<path opacity="0.58" d="M1013.44 116.116C988.78 116.116 967.276 129.307 955.411 149H968.573C978.955 135.623 995.083 127.077 1013.44 127.077C1031.6 127.077 1047.92 135.623 1058.3 149H1071.46C1059.6 129.307 1038.09 116.116 1013.44 116.116Z" fill="#FFF27C"/>
<path d="M983.219 149H998.234C1002.87 146.956 1008.06 145.842 1013.44 145.842C1018.81 145.842 1024 146.956 1028.64 149H1043.65C1035.5 141.94 1024.93 137.667 1013.44 137.667C1001.94 137.667 991.375 141.94 983.219 149Z" fill="#FFF27C"/>
<path opacity="0.58" d="M983.219 149H998.234C1002.87 146.956 1008.06 145.842 1013.44 145.842C1018.81 145.842 1024 146.956 1028.64 149H1043.65C1035.5 141.94 1024.93 137.667 1013.44 137.667C1001.94 137.667 991.375 141.94 983.219 149Z" fill="#FFF27C"/>
<path d="M1379.59 15.606C1399.24 15.606 1416.48 25.6384 1426.68 40.687C1430.2 39.3866 1433.72 38.2718 1437.43 37.5287C1425.56 17.8354 1404.06 4.64465 1379.4 4.64465C1354.75 4.64465 1333.24 17.8354 1321.38 37.5287C1325.09 38.2718 1328.79 39.3866 1332.13 40.687C1342.7 25.4526 1360.12 15.606 1379.59 15.606Z" fill="#FFF27C"/>
<path d="M1379.59 34.1846C1392.19 34.1846 1403.13 40.3155 1410.18 49.6048C1412.4 48.1185 1414.63 46.6322 1417.04 45.3317C1408.69 33.813 1394.98 26.1958 1379.59 26.1958C1364.2 26.1958 1350.67 33.813 1342.14 45.3317C1344.55 46.6322 1346.78 48.1185 1349 49.6048C1356.05 40.3155 1367.17 34.1846 1379.59 34.1846Z" fill="#FFF27C"/>
<path d="M1363.09 62.7955C1366.43 57.0361 1372.54 53.3204 1379.59 53.3204C1386.63 53.3204 1392.75 57.2219 1396.09 62.7955C1397.76 60.7519 1399.61 58.7082 1401.65 56.6646C1396.64 49.7905 1388.67 45.1459 1379.59 45.1459C1370.51 45.1459 1362.35 49.6047 1357.53 56.6646C1359.57 58.7082 1361.42 60.7519 1363.09 62.7955Z" fill="#FFF27C"/>
<path d="M1379.77 60.9377C1374.21 60.9377 1369.58 64.8392 1368.47 70.227C1369.02 71.1559 1369.58 72.0848 1370.13 73.1995C1371.43 73.0137 1372.54 72.828 1373.84 72.828V72.6422C1373.84 69.4838 1376.44 66.697 1379.77 66.697C1382.93 66.697 1385.52 69.298 1385.71 72.4564C1385.71 72.4564 1385.71 72.4564 1385.71 72.6422V72.828C1387 73.0137 1388.12 73.0137 1389.41 73.1995C1389.6 73.0137 1390.71 70.9701 1391.27 70.227C1389.78 64.8392 1385.34 60.9377 1379.77 60.9377Z" fill="#FFF27C"/>
<path d="M1379.59 90.106C1399.24 90.106 1416.48 100.138 1426.68 115.187C1430.2 113.887 1433.72 112.772 1437.43 112.029C1425.56 92.3354 1404.06 79.1447 1379.4 79.1447C1354.75 79.1447 1333.24 92.3354 1321.38 112.029C1325.09 112.772 1328.79 113.887 1332.13 115.187C1342.7 99.9526 1360.12 90.106 1379.59 90.106Z" fill="#FFF27C"/>
<path d="M1379.59 108.685C1392.19 108.685 1403.13 114.816 1410.18 124.105C1412.4 122.619 1414.63 121.132 1417.04 119.646C1408.69 108.127 1394.98 100.51 1379.59 100.51C1364.2 100.51 1350.67 108.127 1342.14 119.646C1344.55 120.946 1346.78 122.433 1349 124.105C1356.05 114.816 1367.17 108.685 1379.59 108.685Z" fill="#FFF27C"/>
<path d="M1363.09 137.481C1366.43 131.722 1372.54 128.006 1379.59 128.006C1386.63 128.006 1392.75 131.908 1396.09 137.481C1397.76 135.438 1399.61 133.394 1401.65 131.35C1396.64 124.476 1388.67 119.832 1379.59 119.832C1370.51 119.832 1362.35 124.291 1357.53 131.35C1359.57 133.208 1361.42 135.252 1363.09 137.481Z" fill="#FFF27C"/>
<path d="M1379.77 135.438C1374.21 135.438 1369.58 139.339 1368.47 144.727C1369.02 145.656 1369.58 146.585 1370.13 147.7C1371.43 147.514 1372.54 147.328 1373.84 147.328V147.142C1373.84 143.984 1376.44 141.197 1379.77 141.197C1382.93 141.197 1385.52 143.798 1385.71 146.956C1385.71 146.956 1385.71 146.956 1385.71 147.142V147.328C1387 147.514 1388.12 147.514 1389.41 147.7C1389.6 147.514 1390.71 145.47 1391.27 144.727C1389.78 139.339 1385.34 135.438 1379.77 135.438Z" fill="#FFF27C"/>
<path d="M1353.45 3.15835C1352.71 2.04364 1351.97 0.928928 1351.04 0H1364.2C1360.68 0.743142 1356.97 1.85786 1353.45 3.15835Z" fill="#FFF27C"/>
<path d="M1233.14 15.606C1252.79 15.606 1270.03 25.6384 1280.22 40.687C1283.75 39.3866 1287.27 38.2718 1290.98 37.5287C1279.11 17.8354 1257.61 4.64465 1232.95 4.64465C1208.3 4.64465 1186.79 17.8354 1174.93 37.5287C1178.63 38.2718 1182.34 39.3866 1185.68 40.687C1196.06 25.4526 1213.49 15.606 1233.14 15.606Z" fill="#FFF27C"/>
<path d="M1233.14 34.1846C1245.74 34.1846 1256.68 40.3155 1263.73 49.6048C1265.95 48.1185 1268.17 46.6322 1270.58 45.3317C1262.24 33.813 1248.52 26.1958 1233.14 26.1958C1217.75 26.1958 1204.22 33.813 1195.69 45.3317C1198.1 46.6322 1200.32 48.1185 1202.55 49.6048C1209.41 40.3155 1220.53 34.1846 1233.14 34.1846Z" fill="#FFF27C"/>
<path d="M1216.45 62.7955C1219.79 57.0361 1225.91 53.3204 1232.95 53.3204C1240 53.3204 1246.11 57.2219 1249.45 62.7955C1251.12 60.7519 1252.97 58.7082 1255.01 56.6646C1250.19 49.7905 1242.04 45.1459 1232.95 45.1459C1223.87 45.1459 1215.71 49.6047 1210.89 56.6646C1212.93 58.7082 1214.78 60.7519 1216.45 62.7955Z" fill="#FFF27C"/>
<path d="M1233.14 60.9377C1227.58 60.9377 1222.94 64.8392 1221.83 70.227C1222.38 71.1559 1222.94 72.0848 1223.5 73.1995C1224.79 73.0137 1225.91 72.828 1227.2 72.828V72.6422C1227.2 69.4838 1229.8 66.697 1233.14 66.697C1236.29 66.697 1238.88 69.298 1239.07 72.4564C1239.07 72.4564 1239.07 72.4564 1239.07 72.6422V72.828C1240.37 73.0137 1241.48 73.0137 1242.78 73.1995C1242.96 73.0137 1244.07 70.9701 1244.63 70.227C1243.33 64.8392 1238.7 60.9377 1233.14 60.9377Z" fill="#FFF27C"/>
<path d="M1233.14 90.106C1252.79 90.106 1270.03 100.138 1280.22 115.187C1283.75 113.887 1287.27 112.772 1290.98 112.029C1279.11 92.3354 1257.61 79.1447 1232.95 79.1447C1208.3 79.1447 1186.79 92.3354 1174.93 112.029C1178.63 112.772 1182.34 113.887 1185.68 115.187C1196.06 99.9526 1213.49 90.106 1233.14 90.106Z" fill="#FFF27C"/>
<path d="M1233.14 108.685C1245.74 108.685 1256.68 114.816 1263.73 124.105C1265.95 122.619 1268.17 121.132 1270.58 119.646C1262.24 108.127 1248.52 100.51 1233.14 100.51C1217.75 100.51 1204.22 108.127 1195.69 119.646C1198.1 120.946 1200.32 122.433 1202.55 124.105C1209.41 114.816 1220.53 108.685 1233.14 108.685Z" fill="#FFF27C"/>
<path d="M1216.45 137.481C1219.79 131.722 1225.91 128.006 1232.95 128.006C1240 128.006 1246.11 131.908 1249.45 137.481C1251.12 135.438 1252.97 133.394 1255.01 131.35C1250.19 124.476 1242.04 119.832 1232.95 119.832C1223.87 119.832 1215.71 124.291 1210.89 131.35C1212.93 133.208 1214.78 135.252 1216.45 137.481Z" fill="#FFF27C"/>
<path d="M1233.14 135.438C1227.58 135.438 1222.94 139.339 1221.83 144.727C1222.38 145.656 1222.94 146.585 1223.5 147.7C1224.79 147.514 1225.91 147.328 1227.2 147.328V147.142C1227.2 143.984 1229.8 141.197 1233.14 141.197C1236.29 141.197 1238.88 143.798 1239.07 146.956C1239.07 146.956 1239.07 146.956 1239.07 147.142V147.328C1240.37 147.514 1241.48 147.514 1242.78 147.7C1242.96 147.514 1244.07 145.47 1244.63 144.727C1243.33 139.339 1238.7 135.438 1233.14 135.438Z" fill="#FFF27C"/>
<path d="M1289.86 25.4526C1293.2 19.6933 1299.32 15.9775 1306.36 15.9775C1313.41 15.9775 1319.53 19.879 1322.86 25.4526C1324.53 23.409 1326.38 21.3653 1328.42 19.3217C1323.6 12.4476 1315.45 7.80298 1306.36 7.80298C1297.28 7.80298 1289.12 12.2618 1284.3 19.3217C1286.16 21.1795 1288.2 23.2232 1289.86 25.4526Z" fill="#FFF27C"/>
<path d="M1306.36 23.5948C1300.8 23.5948 1296.17 27.4963 1295.05 32.8841C1295.61 33.813 1296.17 34.7419 1296.72 35.8566C1298.02 35.6708 1299.13 35.4851 1300.43 35.4851V35.2993C1300.43 32.1409 1303.03 29.3541 1306.36 29.3541C1309.51 29.3541 1312.11 31.9551 1312.3 35.1135C1312.3 35.1135 1312.3 35.1135 1312.3 35.2993V35.4851C1313.59 35.6708 1314.71 35.6708 1316 35.8566C1316.19 35.6708 1317.3 33.6272 1317.86 32.8841C1316.56 27.4963 1311.92 23.5948 1306.36 23.5948Z" fill="#FFF27C"/>
<path d="M1306.36 52.5773C1326.01 52.5773 1343.25 62.6097 1353.45 77.6584C1356.97 76.3579 1360.49 75.2431 1364.2 74.5C1352.34 54.8067 1330.83 41.616 1306.18 41.616C1281.52 41.616 1260.02 54.8067 1248.15 74.5C1251.86 75.2431 1255.57 76.3579 1258.91 77.6584C1269.47 62.6097 1286.71 52.5773 1306.36 52.5773Z" fill="#FFF27C"/>
<path d="M1306.36 71.3417C1318.97 71.3417 1329.91 77.4726 1336.95 86.7619C1339.18 85.2756 1341.4 83.7893 1343.81 82.4888C1335.28 70.7843 1321.75 63.1671 1306.36 63.1671C1290.98 63.1671 1277.44 70.7843 1268.92 82.303C1271.33 83.6035 1273.55 85.0898 1275.77 86.7619C1282.82 77.2868 1293.76 71.3417 1306.36 71.3417Z" fill="#FFF27C"/>
<path d="M1289.86 99.9527C1293.2 94.1933 1299.32 90.4776 1306.36 90.4776C1313.41 90.4776 1319.53 94.3791 1322.86 99.9527C1324.53 97.909 1326.38 95.8654 1328.42 93.8217C1323.6 86.9477 1315.45 82.303 1306.36 82.303C1297.28 82.303 1289.12 86.7619 1284.3 93.8217C1286.16 95.6796 1288.2 97.7232 1289.86 99.9527Z" fill="#FFF27C"/>
<path d="M1306.36 98.0947C1300.8 98.0947 1296.17 101.996 1295.05 107.384C1295.61 108.313 1296.17 109.242 1296.72 110.357C1298.02 110.171 1299.13 109.985 1300.43 109.985V109.799C1300.43 106.641 1303.03 103.854 1306.36 103.854C1309.51 103.854 1312.11 106.455 1312.3 109.613C1312.3 109.613 1312.3 109.613 1312.3 109.799V109.985C1313.59 110.171 1314.71 110.171 1316 110.357C1316.19 110.171 1317.3 108.127 1317.86 107.384C1316.56 101.996 1311.92 98.0947 1306.36 98.0947Z" fill="#FFF27C"/>
<path d="M1259.28 3.15835C1260.02 2.04364 1260.76 0.928928 1261.69 0H1248.52C1252.05 0.743142 1255.75 1.85786 1259.28 3.15835Z" fill="#FFF27C"/>
<path d="M1207 3.15835C1206.26 2.04364 1205.52 0.928928 1204.59 0H1217.75C1214.04 0.743142 1210.34 1.85786 1207 3.15835Z" fill="#FFF27C"/>
<path d="M1336.95 12.2618C1339.18 10.7756 1341.4 9.28928 1343.81 7.80299C1341.77 5.01621 1339.36 2.22943 1336.58 0H1321.56C1327.68 2.601 1333.06 6.87407 1336.95 12.2618Z" fill="#FFF27C"/>
<path d="M1268.92 7.80299C1271.33 9.10349 1273.55 10.5898 1275.77 12.2618C1279.67 6.87407 1285.04 2.78678 1291.16 0H1276.15C1273.55 2.41521 1271.14 5.01621 1268.92 7.80299Z" fill="#FFF27C"/>
<path d="M1306.36 116.116C1281.71 116.116 1260.2 129.307 1248.34 149H1261.5C1271.88 135.623 1288.01 127.077 1306.36 127.077C1324.53 127.077 1340.84 135.623 1351.23 149H1364.39C1352.52 129.307 1331.02 116.116 1306.36 116.116Z" fill="#FFF27C"/>
<path opacity="0.58" d="M1306.36 116.116C1281.71 116.116 1260.2 129.307 1248.34 149H1261.5C1271.88 135.623 1288.01 127.077 1306.36 127.077C1324.53 127.077 1340.84 135.623 1351.23 149H1364.39C1352.52 129.307 1331.02 116.116 1306.36 116.116Z" fill="#FFF27C"/>
<path d="M1276.15 149H1291.16C1295.8 146.956 1300.99 145.842 1306.36 145.842C1311.74 145.842 1316.93 146.956 1321.56 149H1336.58C1328.42 141.94 1317.86 137.667 1306.36 137.667C1294.87 137.667 1284.3 141.94 1276.15 149Z" fill="#FFF27C"/>
<path opacity="0.58" d="M1276.15 149H1291.16C1295.8 146.956 1300.99 145.842 1306.36 145.842C1311.74 145.842 1316.93 146.956 1321.56 149H1336.58C1328.42 141.94 1317.86 137.667 1306.36 137.667C1294.87 137.667 1284.3 141.94 1276.15 149Z" fill="#FFF27C"/>
<path d="M3.49899 25.4526C5.16743 23.409 7.02124 21.3653 9.06044 19.3217C4.24051 12.4476 -3.91629 7.80298 -13 7.80298V15.7918C-5.95549 15.7918 0.162113 19.6933 3.49899 25.4526Z" fill="#FFF27C"/>
<path d="M34.087 77.6584C37.6093 76.3579 41.1315 75.2431 44.8392 74.5C33.1601 54.8067 11.6558 41.616 -13 41.616V52.5773C6.65048 52.5773 23.891 62.6097 34.087 77.6584Z" fill="#FFF27C"/>
<path d="M17.588 86.7618C19.8126 85.2755 22.0372 83.7892 24.4471 82.4888C15.9196 70.7843 2.3867 63.1671 -13 63.1671V71.3416C-0.394032 71.3416 10.5435 77.2868 17.588 86.7618Z" fill="#FFF27C"/>
<path d="M3.49899 99.9526C5.16743 97.909 7.02124 95.8653 9.06044 93.8217C4.24051 86.9476 -3.91629 82.303 -13 82.303V90.2918C-5.95549 90.2918 0.162113 94.1932 3.49899 99.9526Z" fill="#FFF27C"/>
<path d="M31.8624 149H45.0245C33.1601 129.307 11.6558 116.116 -13 116.116V127.077C5.16743 127.077 21.481 135.623 31.8624 149Z" fill="#FFF27C"/>
<path d="M17.2172 149C9.06044 141.94 -1.50632 137.667 -13 137.667V145.842C-7.62392 145.842 -2.43323 146.956 2.20132 149H17.2172Z" fill="#FFF27C"/>
<path d="M1405.91 3.15835C1406.65 2.04364 1407.4 0.928928 1408.32 0H1395.16C1398.68 0.743142 1402.39 1.85786 1405.91 3.15835Z" fill="#FFF27C"/>
<path d="M1415.55 7.80299C1417.96 9.10349 1420.19 10.5898 1422.41 12.2618C1426.31 6.87407 1431.68 2.78678 1437.8 0H1422.78C1420.19 2.41521 1417.78 5.01621 1415.55 7.80299Z" fill="#FFF27C"/>
<path d="M1453 7.80298C1443.92 7.80298 1435.76 12.2618 1430.94 19.3217C1432.98 21.1795 1434.83 23.2232 1436.5 25.4526C1439.84 19.6933 1445.96 15.9775 1453 15.9775V7.80298Z" fill="#FFF27C"/>
<path d="M1453 41.616C1428.34 41.616 1406.84 54.8067 1394.98 74.5C1398.68 75.2431 1402.39 76.3579 1405.73 77.6584C1415.92 62.4239 1433.16 52.5773 1452.81 52.5773L1453 41.616Z" fill="#FFF27C"/>
<path d="M1453 63.1671C1437.61 63.1671 1424.08 70.7843 1415.55 82.303C1417.96 83.6035 1420.19 85.0897 1422.41 86.7618C1429.46 77.4725 1440.39 71.3416 1453 71.3416V63.1671Z" fill="#FFF27C"/>
<path d="M1453 82.303C1443.92 82.303 1435.76 86.7618 1430.94 93.8217C1432.98 95.6795 1434.83 97.7232 1436.5 99.9526C1439.84 94.1932 1445.96 90.4775 1453 90.4775V82.303Z" fill="#FFF27C"/>
<path d="M1453 116.116C1428.34 116.116 1406.84 129.307 1394.98 149H1408.14C1418.52 135.623 1434.65 127.077 1453 127.077V116.116Z" fill="#FFF27C"/>
<path opacity="0.58" d="M1453 116.116C1428.34 116.116 1406.84 129.307 1394.98 149H1408.14C1418.52 135.623 1434.65 127.077 1453 127.077V116.116Z" fill="#FFF27C"/>
<path d="M1453 137.667C1441.51 137.667 1430.94 141.94 1422.78 149H1437.8C1442.43 146.956 1447.62 145.842 1453 145.842V137.667Z" fill="#FFF27C"/>
<path opacity="0.58" d="M1453 137.667C1441.51 137.667 1430.94 141.94 1422.78 149H1437.8C1442.43 146.956 1447.62 145.842 1453 145.842V137.667Z" fill="#FFF27C"/>
</svg>
