<svg width="61" height="61" viewBox="0 0 61 61" fill="none" xmlns="http://www.w3.org/2000/svg">
<path fill-rule="evenodd" clip-rule="evenodd" d="M52.1125 8.86464C46.3783 3.15126 38.7522 0.00321129 30.6274 0C13.8864 0 0.261367 13.5589 0.254667 30.225C0.252434 35.5523 1.65108 40.7527 4.30883 45.3364L0 61L16.101 56.7968C20.5371 59.2047 25.5319 60.4738 30.6152 60.4759H30.6277C47.3669 60.4759 60.9932 46.9153 61 30.2491C61.0032 22.1725 57.847 14.578 52.1125 8.86464V8.86464ZM30.6277 55.3707H30.6174C26.0876 55.369 21.6446 54.1579 17.7688 51.8688L16.8469 51.3243L7.29246 53.8187L9.84277 44.5477L9.24245 43.5973C6.71547 39.5972 5.38076 34.9738 5.38275 30.2269C5.38829 16.3747 16.713 5.10513 30.6377 5.10513C37.3804 5.10768 43.7188 7.72438 48.485 12.4731C53.2512 17.2219 55.8746 23.5341 55.872 30.2471C55.8662 44.1003 44.5417 55.3707 30.6277 55.3707V55.3707ZM44.4748 36.5547C43.7158 36.1767 39.9847 34.3494 39.289 34.0974C38.5934 33.8453 38.0876 33.7194 37.5815 34.4755C37.0757 35.2315 35.6213 36.9328 35.1785 37.4368C34.7359 37.9409 34.2932 38.004 33.5343 37.6259C32.7754 37.2478 30.3301 36.4504 27.4313 33.8772C25.1754 31.8747 23.6522 29.4012 23.2095 28.6451C22.7669 27.889 23.1625 27.4802 23.5424 27.1037C23.8837 26.7653 24.3012 26.2216 24.6807 25.7805C25.0601 25.3395 25.1866 25.0244 25.4395 24.5204C25.6925 24.0163 25.566 23.5752 25.3763 23.1972C25.1866 22.8192 23.6689 19.1017 23.0364 17.5895C22.4205 16.1167 21.7948 16.316 21.3289 16.2929C20.8868 16.271 20.3803 16.2663 19.8745 16.2663C19.3685 16.2663 18.5464 16.4554 17.8507 17.2114C17.1551 17.9676 15.1947 19.7948 15.1947 23.5122C15.1947 27.2297 17.914 30.821 18.2934 31.3251C18.6728 31.8292 23.6447 39.458 31.2576 42.7295C33.0683 43.5076 34.4819 43.9723 35.584 44.3206C37.4021 44.8952 39.0564 44.8141 40.3641 44.6197C41.8221 44.4029 44.8541 42.7926 45.4866 41.0283C46.119 39.2641 46.119 37.7519 45.9292 37.4369C45.7396 37.1218 45.2336 36.9328 44.4748 36.5547" fill="#011627"/>
</svg>
